<?xml version="1.0" encoding="utf-8"?>
<!-- Generator: Adobe Illustrator 24.0.2, SVG Export Plug-In . SVG Version: 6.00 Build 0)  -->
<svg version="1.1" id="Capa_1" xmlns="http://www.w3.org/2000/svg" xmlns:xlink="http://www.w3.org/1999/xlink" x="0px" y="0px"
	 viewBox="0 0 201 65.5" style="enable-background:new 0 0 201 65.5;" xml:space="preserve">
<style type="text/css">
	.st0{fill:#0B3D5C;stroke:#FFFFFF;stroke-width:10.56;stroke-miterlimit:10;}
	.st1{fill:#7DAC3E;}
	.st2{opacity:0.4;fill:url(#SVGID_1_);enable-background:new    ;}
	.st3{enable-background:new    ;}
	.st4{fill:#FFFFFF;}
</style>
<title>Recurso 12</title>
<g>
	<g id="Capa_2_1_">
		<g id="Capa_1-2">
			
				<image style="overflow:visible;opacity:0.65;enable-background:new    ;" width="322" height="189" xlink:href="4BC31E2E.png"  transform="matrix(1 0 0 1 -56 -58)">
			</image>
			<path class="st0" d="M193,51.3c0,3.9-3.1,7-7,7H16.6c-3.9,0-7-3.1-7-7V14.9c0-3.9,3.1-7,7-7H186c3.9,0,7,3.1,7,7V51.3z"/>
			<path class="st1" d="M193,51.5c0,3.9-3.4,6.8-7.3,6.8h-169c-3.7,0.1-6.7-2.8-6.8-6.5c0-0.1,0-0.2,0-0.3V15.1
				c0-3.9,2.9-6.1,6.8-6.1h168.9c3.9,0,7.3,2.2,7.3,6.1L193,51.5z"/>
			
				<linearGradient id="SVGID_1_" gradientUnits="userSpaceOnUse" x1="-18.46" y1="1025.26" x2="221.2299" y2="1045.3201" gradientTransform="matrix(1 0 0 1 0 -1006)">
				<stop  offset="0" style="stop-color:#F2F2F2"/>
				<stop  offset="0.1" style="stop-color:#F2F2F2;stop-opacity:0.97"/>
				<stop  offset="0.23" style="stop-color:#F3F3F3;stop-opacity:0.9"/>
				<stop  offset="0.37" style="stop-color:#F5F5F5;stop-opacity:0.79"/>
				<stop  offset="0.54" style="stop-color:#F7F7F7;stop-opacity:0.62"/>
				<stop  offset="0.71" style="stop-color:#FAFAFA;stop-opacity:0.41"/>
				<stop  offset="0.89" style="stop-color:#FDFDFD;stop-opacity:0.16"/>
				<stop  offset="1" style="stop-color:#FFFFFF;stop-opacity:0"/>
			</linearGradient>
			<path class="st2" d="M192.7,11.6c-55.6,5-142.3,15-182.8,37.5V14c0-3.9,3.6-5,7.5-5h169.4C189.5,9.1,191.5,9.5,192.7,11.6z"/>
			<g class="st3">
				<path class="st4" d="M52.2,24.4H67v4.7h-9.1v1.8h8.4V35h-8.4v1.9h9.2v4.7H52.2V24.4z"/>
				<path class="st4" d="M68.6,24.4H74l6.1,7.6v-7.6h5.7v17.3h-5.1l-6.4-8v8h-5.7V24.4z"/>
				<path class="st4" d="M86.6,24.4h6.5l3.4,9.7l3.4-9.7h6.4l-7,17.4h-5.5L86.6,24.4z"/>
				<path class="st4" d="M106.9,24.4h5.8v17.3h-5.8V24.4z"/>
				<path class="st4" d="M120.7,24.2h5.7l7.3,17.4h-6.3l-0.9-2.3h-6l-0.9,2.3h-6.2L120.7,24.2z M125.1,35.2l-1.6-4.2l-1.6,4.2H125.1
					z"/>
				<path class="st4" d="M134.5,24.4h8.4c3.1,0,5,0.8,6.2,2c1,1,1.6,2.3,1.6,4.1v0c0,2.5-1.3,4.3-3.4,5.3l4,5.9h-6.6l-3.3-4.9h-1.2
					v4.9h-5.8V24.4z M142.7,32.6c1.4,0,2.2-0.6,2.2-1.7v0c0-1.1-0.9-1.7-2.2-1.7h-2.5v3.4H142.7z"/>
			</g>
		</g>
	</g>
</g>
</svg>
