<svg xmlns="http://www.w3.org/2000/svg" viewBox="0 0 323.65 63.18"><defs><style>.cls-1{fill:#0a3356;}.cls-2{fill:#749c40;}</style></defs><title>Recurso 3</title><g id="Capa_2" data-name="Capa 2"><g id="Capa_1-2" data-name="Capa 1"><path class="cls-1" d="M115.72,29a17.84,17.84,0,0,0,11.63-4.17v-12H115.08v5.43h5.23v3.25A7.35,7.35,0,0,1,116,22.58a7.08,7.08,0,0,1-7.27-7.46v-.07a7,7,0,0,1,6.85-7.31,9.39,9.39,0,0,1,6.47,2.53L126.44,5a15.61,15.61,0,0,0-10.87-3.86c-8.26,0-14.38,6.11-14.38,13.92v.07C101.19,23.23,107.39,29,115.72,29Z"/><path class="cls-1" d="M148.58,16.73c0,3.75-2,5.5-5,5.5s-4.93-1.83-4.93-5.69V1.66h-7.5v15c0,8.38,4.78,12.24,12.36,12.24s12.55-3.83,12.55-12.43V1.66h-7.5Z"/><polygon class="cls-1" points="167.81 17.88 180.66 17.88 180.66 12.02 167.81 12.02 167.81 7.93 182 7.93 182 1.66 160.47 1.66 160.47 28.43 182.19 28.43 182.19 22.12 167.81 22.12 167.81 17.88"/><path class="cls-1" d="M193.43,20.32h3.29l5.4,8.11h8.53l-6.39-9.33a8.48,8.48,0,0,0,5.51-8.26v-.08a8.38,8.38,0,0,0-2.37-6.23c-1.8-1.8-4.63-2.87-8.73-2.87H186V28.43h7.42Zm0-12.27h4.9c2.45,0,4,1.07,4,3.21v.08c0,1.95-1.5,3.17-4,3.17h-4.94Z"/><path class="cls-1" d="M220.93,20.32h3.29l5.39,8.11h8.53l-6.39-9.33a8.48,8.48,0,0,0,5.51-8.26v-.08a8.34,8.34,0,0,0-2.37-6.23c-1.8-1.8-4.63-2.87-8.72-2.87H213.51V28.43h7.42Zm0-12.27h4.9c2.44,0,4,1.07,4,3.21v.08c0,1.95-1.49,3.17-4,3.17h-4.93Z"/><polygon class="cls-1" points="248.35 17.88 261.2 17.88 261.2 12.02 248.35 12.02 248.35 7.93 262.54 7.93 262.54 1.66 241.01 1.66 241.01 28.43 262.73 28.43 262.73 22.12 248.35 22.12 248.35 17.88"/><path class="cls-1" d="M290.31,10.84v-.08a8.38,8.38,0,0,0-2.37-6.23c-1.8-1.8-4.63-2.87-8.73-2.87H266.55V28.43H274V20.32h3.29l5.4,8.11h8.53L284.8,19.1A8.48,8.48,0,0,0,290.31,10.84Zm-7.42.5c0,1.95-1.5,3.17-4,3.17H274V8.05h4.9c2.45,0,4,1.07,4,3.21Z"/><path class="cls-1" d="M307.55,29C315.81,29,322,22.73,322,15.05V15c0-7.69-6.12-13.84-14.38-13.84s-14.46,6.23-14.46,13.92v.07C293.17,22.81,299.29,29,307.55,29Zm-6.81-14a6.83,6.83,0,0,1,6.81-7.15c4.1,0,6.85,3.32,6.85,7.23v.07c0,3.86-2.72,7.15-6.77,7.15a7,7,0,0,1-6.89-7.22Z"/><polygon class="cls-2" points="108.72 51.51 121.34 51.51 121.34 46.28 108.72 46.28 108.72 40.85 123.06 40.85 123.06 35.61 102.91 35.61 102.91 62.37 123.25 62.37 123.25 57.13 108.72 57.13 108.72 51.51"/><path class="cls-2" d="M141.23,52.05h5.93V55.9a9.29,9.29,0,0,1-5.55,1.62,8.05,8.05,0,0,1-3.27-.64,7.62,7.62,0,0,1-2.56-1.78,7.8,7.8,0,0,1-1.68-2.7,9.29,9.29,0,0,1-.6-3.39v-.08a8.63,8.63,0,0,1,.6-3.23,8.09,8.09,0,0,1,4.09-4.45,6.79,6.79,0,0,1,3-.67,10.44,10.44,0,0,1,2.1.19,9.49,9.49,0,0,1,1.78.54,9.32,9.32,0,0,1,1.59.84,15.14,15.14,0,0,1,1.53,1.14l3.71-4.47a17.5,17.5,0,0,0-2.14-1.57,12.33,12.33,0,0,0-2.37-1.14,14.83,14.83,0,0,0-2.74-.71,19.24,19.24,0,0,0-3.27-.25,14.15,14.15,0,0,0-5.62,1.09A13.71,13.71,0,0,0,127.35,49v.08a14.36,14.36,0,0,0,1,5.5,12.93,12.93,0,0,0,2.89,4.36,13.19,13.19,0,0,0,4.43,2.87,15.25,15.25,0,0,0,5.72,1,16.13,16.13,0,0,0,6.52-1.24,19.56,19.56,0,0,0,4.91-3V47H141.23Z"/><path class="cls-2" d="M179.26,49.81a8.37,8.37,0,0,0,1.59-5.29v-.08a8.21,8.21,0,0,0-2.66-6.5q-2.66-2.32-7.44-2.33H158.52V62.37h5.89V53.81H169l5.74,8.56h6.88l-6.54-9.56A9.1,9.1,0,0,0,179.26,49.81Zm-4.38-5a3.53,3.53,0,0,1-1.16,2.76,5,5,0,0,1-3.35,1h-6V40.92h5.85a5.39,5.39,0,0,1,3.4,1,3.4,3.4,0,0,1,1.22,2.87Z"/><polygon class="cls-2" points="191.98 51.51 204.6 51.51 204.6 46.28 191.98 46.28 191.98 40.85 206.32 40.85 206.32 35.61 186.16 35.61 186.16 62.37 206.51 62.37 206.51 57.13 191.98 57.13 191.98 51.51"/><path class="cls-2" d="M228.93,49.16a10.07,10.07,0,0,0-2.68-1.6,27.36,27.36,0,0,0-3.62-1.21c-1.15-.3-2.11-.57-2.86-.8a8.2,8.2,0,0,1-1.78-.73,2.14,2.14,0,0,1-.9-.86,2.36,2.36,0,0,1-.25-1.13v-.07a2,2,0,0,1,.86-1.66,4.12,4.12,0,0,1,2.58-.67,9,9,0,0,1,3.44.7,20.27,20.27,0,0,1,3.52,1.93l3.06-4.43a15.53,15.53,0,0,0-4.53-2.52,16,16,0,0,0-5.42-.88,11.88,11.88,0,0,0-3.77.57,8.54,8.54,0,0,0-3,1.64A7.47,7.47,0,0,0,211.71,40a7.67,7.67,0,0,0-.69,3.3v.08a7.67,7.67,0,0,0,.64,3.33,6.06,6.06,0,0,0,1.78,2.23,10.18,10.18,0,0,0,2.8,1.51,32.44,32.44,0,0,0,3.68,1.11c1.12.28,2,.55,2.74.8a8.63,8.63,0,0,1,1.65.77,2.06,2.06,0,0,1,.8.82,2.18,2.18,0,0,1,.22,1V55a2.12,2.12,0,0,1-1,1.86,5.18,5.18,0,0,1-2.85.66,10,10,0,0,1-4.22-.88,16.89,16.89,0,0,1-3.77-2.37L210,58.47a16,16,0,0,0,5.35,3.23,17.82,17.82,0,0,0,6,1,13.37,13.37,0,0,0,4-.55,9.12,9.12,0,0,0,3.08-1.61,7.2,7.2,0,0,0,2-2.6,8.28,8.28,0,0,0,.72-3.53v-.08a7.47,7.47,0,0,0-.56-3A6.17,6.17,0,0,0,228.93,49.16Z"/><polygon class="cls-2" points="245.44 35.42 233.97 62.37 239.97 62.37 248.08 42.49 253.74 56.37 256.19 62.37 262.35 62.37 250.87 35.42 245.44 35.42"/><path class="cls-2" d="M287.18,39.43a13.56,13.56,0,0,0-4.51-2.81,15.93,15.93,0,0,0-5.75-1H266.48V62.37h10.44a15.52,15.52,0,0,0,5.75-1,13.77,13.77,0,0,0,4.51-2.83,12.41,12.41,0,0,0,2.93-4.24,13.4,13.4,0,0,0,1-5.28v-.08a13.25,13.25,0,0,0-1-5.25A12.46,12.46,0,0,0,287.18,39.43ZM285,49.07a8.48,8.48,0,0,1-.6,3.25,7.58,7.58,0,0,1-1.64,2.52,7,7,0,0,1-2.55,1.64,8.9,8.9,0,0,1-3.28.58h-4.55V40.92h4.55a8.7,8.7,0,0,1,3.28.6,7.22,7.22,0,0,1,2.55,1.66,7.55,7.55,0,0,1,1.64,2.56A8.62,8.62,0,0,1,285,49Z"/><path class="cls-2" d="M319.65,39.18a14.33,14.33,0,0,0-4.49-2.94,14.55,14.55,0,0,0-5.7-1.09,14.72,14.72,0,0,0-5.72,1.09,13.65,13.65,0,0,0-7.47,7.38A13.41,13.41,0,0,0,295.2,49v.08a13.75,13.75,0,0,0,1.05,5.37,13.21,13.21,0,0,0,2.94,4.36,14.43,14.43,0,0,0,10.19,4,14.68,14.68,0,0,0,5.72-1.09,13.71,13.71,0,0,0,7.48-7.38A13.58,13.58,0,0,0,323.65,49v-.08a13.75,13.75,0,0,0-1-5.37A13.24,13.24,0,0,0,319.65,39.18Zm-2.16,9.89a8.9,8.9,0,0,1-.59,3.23A8.56,8.56,0,0,1,315.26,55a7.38,7.38,0,0,1-2.55,1.8,8.1,8.1,0,0,1-3.25.65,7.74,7.74,0,0,1-3.27-.67,8.15,8.15,0,0,1-2.56-1.81A8,8,0,0,1,302,52.24a8.81,8.81,0,0,1-.6-3.25v-.08a8.7,8.7,0,0,1,.6-3.23A8.38,8.38,0,0,1,303.59,43a7.36,7.36,0,0,1,2.52-1.8,8.12,8.12,0,0,1,3.27-.65,7.75,7.75,0,0,1,3.25.67,8.06,8.06,0,0,1,2.59,1.81,8.33,8.33,0,0,1,1.68,2.68,9,9,0,0,1,.59,3.25Z"/><path class="cls-1" d="M64.41,16.29H86.35V1.63H51.9A36.31,36.31,0,0,1,64.41,16.29Z"/><path class="cls-1" d="M50.11,62.67H86.8V47.92H63.91A36.32,36.32,0,0,1,50.11,62.67Z"/><path class="cls-2" d="M31.67,63.18A31.69,31.69,0,0,0,59.38,46.84c0-.06,0-.11.08-.16.35-.63.67-1.28,1-1.93s.68-1.54,1-2.33l.06-.16c.14-.38.26-.76.39-1.14H47.41A18.45,18.45,0,1,1,41.9,16.23H59.26a31.29,31.29,0,0,0-4.4-6v0c-.31-.33-.63-.67-1-1l-.27-.27-.46-.43-.84-.77-.24-.21-.29-.23-.47-.39-.14-.11c-.28-.22-.57-.43-.86-.64L50,5.89l-.24-.17-.4-.27-.26-.18-.82-.53L48,4.54,47.06,4l-.64-.34h0a33,33,0,0,0-4.75-2A31.89,31.89,0,0,0,32.6,0h-2L29.51.07h0a31.37,31.37,0,0,0-11,2.79l-.06,0-1,.49-.1,0c-.38.19-.76.39-1.13.6s-.58.33-.87.51L15,4.74c-.21.12-.41.26-.62.39l-.45.3-.42.29-.16.11L13,6.07l-.81.61,0,0-.56.44-.37.31-.17.15a31.4,31.4,0,0,0-7.58,9.6.61.61,0,0,0-.07.14c-.06.11-.11.22-.17.32a32.75,32.75,0,0,0-1.95,5h0c-.14.48-.27,1-.39,1.47l-.15.64c-.06.26-.11.52-.16.78s-.15.76-.21,1.14a.78.78,0,0,1,0,.14A31.68,31.68,0,0,0,31.67,63.18Z"/><path class="cls-1" d="M66.53,41.12h18V38H67c-.19,1-.43,2.07-.71,3.08Z"/><path class="cls-2" d="M30.77,41.12H61.85s0,0,0-.08a.14.14,0,0,0,0-.06A29.53,29.53,0,0,0,62.66,38h-35Z"/><path class="cls-1" d="M67.56,35.81h17V32.73h-17c0,1-.11,2.06-.23,3.08Z"/><path class="cls-2" d="M25.46,35.81H63c.14-1,.23-2,.27-3.08H22.37Z"/><path class="cls-1" d="M67.78,30.5H84.54V27.42H67.38c.12,1,.19,2,.22,3.08Z"/><path class="cls-2" d="M20.15,30.5H63.31c0-1-.1-1.92-.22-2.86l0-.22H23.23Z"/></g></g></svg>