<svg xmlns="http://www.w3.org/2000/svg" width="39.07" height="39.07" viewBox="0 0 39.07 39.07"><defs><style>.a{fill:#fff;}</style></defs><path class="a" d="M36.28,32H2.782A2.8,2.8,0,0,0,0,34.817V68.253A2.8,2.8,0,0,0,2.782,71.07h33.5a2.81,2.81,0,0,0,2.791-2.817V34.817A2.81,2.81,0,0,0,36.28,32ZM11.808,65.489H6.018V46.843h5.8V65.489ZM8.913,44.3a3.358,3.358,0,1,1,3.358-3.358A3.359,3.359,0,0,1,8.913,44.3Zm24.6,21.192H27.724v-9.07c0-2.163-.044-4.945-3.009-4.945-3.017,0-3.48,2.355-3.48,4.788v9.227H15.445V46.843H21V49.39h.078a6.1,6.1,0,0,1,5.486-3.009c5.861,0,6.951,3.863,6.951,8.887Z" transform="translate(0 -32)"/></svg>