<svg xmlns="http://www.w3.org/2000/svg" width="224.356" height="35.021" viewBox="0 0 224.356 35.021"><defs><style>.a{fill:#ec5b25;}.b{fill:#fff;}</style></defs><path class="a" d="M501.281,34.624H485.836v5.059h11Z" transform="translate(-305.432 -27.107)"/><path class="b" d="M36.916,56.624H30.2V55.482a9.411,9.411,0,0,1-5.073,1.463c-3.62,0-9.281-1.32-9.281-7.427,0-6.676,8.538-7.462,13.179-7.462H30.76a3.9,3.9,0,0,0-3.62-2.213,9.918,9.918,0,0,0-5.568,1.642L17.581,36.88a15.323,15.323,0,0,1,9.683-3.142c6.342,0,9.652,3.427,9.652,9.352Zm-6.806-9.1c-.8,0-1.392,0-2.444.071a19.011,19.011,0,0,0-2.908.322c-1.949.427-2.2,1.034-2.2,1.5s.681,1.392,3,1.392c1.3,0,4.61.144,4.61-1.606v-.963Z" transform="translate(-15.849 -26.561)"/><path class="b" d="M101.948,45.068H95.2V43.782h-.062a10.032,10.032,0,0,1-5.1,1.606c-6.93,0-10.023-4.713-10.023-11.532,0-6.927,3.063-11.639,10.023-11.639a9.882,9.882,0,0,1,5.1,1.463H95.2v-8.64h6.744ZM91.12,28.752c-3.125,0-4.362,1.676-4.362,5.1,0,3.392,1.206,5,4.362,5,3.125,0,4.331-1.642,4.331-5C95.451,30.394,94.244,28.752,91.12,28.752Z" transform="translate(-55.384 -15.041)"/><path class="b" d="M168.929,47.71h-15.19a8.67,8.67,0,0,0,1.631,2,5.213,5.213,0,0,0,3.226,1.069,5.732,5.732,0,0,0,4.517-1.713l3.9,4.463a11.214,11.214,0,0,1-8.569,3.319c-7.641,0-11.6-5.07-11.6-11.461,0-6.676,4.145-11.747,11.23-11.747,7.363,0,11.075,5.248,11.075,11.747A12.072,12.072,0,0,1,168.929,47.71Zm-6.466-5.428s-.958-1.188-1.432-1.654a4.2,4.2,0,0,0-2.9-1.1,4.446,4.446,0,0,0-2.607.7,10.844,10.844,0,0,0-1.817,2.048h8.755Z" transform="translate(-96.56 -26.501)"/><path class="b" d="M221.376,45.033h-6.744V15.041h6.744Z" transform="translate(-138.329 -15.041)"/><path class="b" d="M262.946,56.624h-6.713V55.482a9.411,9.411,0,0,1-5.073,1.463c-3.62,0-9.281-1.32-9.281-7.427,0-6.676,8.538-7.462,13.179-7.462h1.732a6,6,0,0,0-1.182-1.642,4.114,4.114,0,0,0-2.438-.57,9.919,9.919,0,0,0-5.568,1.642l-3.991-4.605a15.323,15.323,0,0,1,9.683-3.142c6.342,0,9.652,3.427,9.652,9.352Zm-6.806-9.1c-.8,0-1.392,0-2.444.071a19.008,19.008,0,0,0-2.908.322c-1.949.427-2.2,1.034-2.2,1.5s.681,1.392,3,1.392c1.3,0,4.61.144,4.61-1.606v-.963Z" transform="translate(-155.118 -26.562)"/><path class="b" d="M329.468,56.553h-6.744V43.413c0-2.214-.9-3.249-3.5-3.249s-4.022,1.286-4.022,3.356V56.553h-6.744V33.986h6.744v1.429h.061a10.024,10.024,0,0,1,5.568-1.677c6,0,8.631,3.64,8.631,9.032Z" transform="translate(-196.143 -26.561)"/><path class="b" d="M387.528,43.1a9.054,9.054,0,0,1-7.083,3.606c-4.363,0-7.146-2.678-7.146-8.319V29.6h-2.444V23.891H373.3V21.213l6.743-4.035v6.677l5.383.035V29.6h-5.383v8.783c0,1.142.525,1.893,1.424,1.893a2.872,2.872,0,0,0,2.412-1.428Z" transform="translate(-234.586 -16.358)"/><path class="b" d="M439.641,56.624h-6.712V55.482a9.409,9.409,0,0,1-5.074,1.463c-3.62,0-9.28-1.32-9.28-7.427,0-6.676,8.538-7.462,13.179-7.462h1.732s-.563-1.473-1.573-1.856a5.67,5.67,0,0,0-2.047-.356,9.924,9.924,0,0,0-5.569,1.642l-3.99-4.605a15.324,15.324,0,0,1,9.683-3.142c6.342,0,9.651,3.427,9.651,9.352Zm-6.806-9.1c-.8,0-1.392,0-2.443.071a19.021,19.021,0,0,0-2.909.322c-1.949.427-2.2,1.034-2.2,1.5s.681,1.392,3,1.392c1.3,0,4.61.144,4.61-1.606v-.963Z" transform="translate(-263.989 -26.561)"/><path class="b" d="M553.364,56.85c-7.393,0-11.136-5.1-11.136-11.6s3.744-11.6,11.136-11.6,11.169,5.071,11.169,11.6C564.534,51.708,560.7,56.85,553.364,56.85Zm0-16.853c-3.093,0-4.422,2-4.422,5.25,0,3.213,1.391,5.248,4.454,5.248s4.424-2.035,4.424-5.248S556.459,40,553.364,40Z" transform="translate(-340.178 -26.502)"/><path class="a" d="M500.549,85.24H515.97l.061-5.055-10.94,0Z" transform="translate(-314.497 -55.177)"/><path class="a" d="M502.931,18.36h-7.094l-30.2,33.747h7.44Z" transform="translate(-292.987 -17.086)"/></svg>