<?xml version="1.0" encoding="utf-8"?>
<!-- Generator: Adobe Illustrator 24.0.2, SVG Export Plug-In . SVG Version: 6.00 Build 0)  -->
<svg version="1.1" id="Capa_1" xmlns="http://www.w3.org/2000/svg" xmlns:xlink="http://www.w3.org/1999/xlink" x="0px" y="0px"
	 viewBox="0 0 191 61.5" style="enable-background:new 0 0 191 61.5;" xml:space="preserve">
<style type="text/css">
	.st0{fill:#0B3D5C;stroke:#FFFFFF;stroke-width:10.05;stroke-miterlimit:10;}
	.st1{fill:#0A3356;}
	.st2{opacity:0.4;fill:url(#SVGID_1_);enable-background:new    ;}
	.st3{enable-background:new    ;}
	.st4{fill:#FFFFFF;}
</style>
<title>Recurso 13</title>
<g>
	<g id="Capa_2_1_">
		<g id="Capa_1-2">
			
				<image style="overflow:visible;opacity:0.65;enable-background:new    ;" width="307" height="180" xlink:href="5D17279.png"  transform="matrix(1 0 0 1 -55 -57)">
			</image>
			<path class="st0" d="M14.2,5.3h161.2c3.7,0,6.7,3,6.7,6.7l0,0v34.6c0,3.7-3,6.7-6.7,6.7H14.2c-3.7,0-6.7-3-6.7-6.7V11.9
				C7.5,8.3,10.5,5.3,14.2,5.3z"/>
			<path class="st1" d="M182.1,46.8c-0.2,3.7-3.3,6.6-7,6.5H14.3c-3.5,0.1-6.4-2.7-6.4-6.2c0-0.1,0-0.2,0-0.3V12.2
				c0-3.7,2.8-5.8,6.4-5.8h160.8c3.7,0,7,2.1,7,5.8V46.8z"/>
			
				<linearGradient id="SVGID_1_" gradientUnits="userSpaceOnUse" x1="-19.1398" y1="1028.1182" x2="208.9602" y2="1047.1981" gradientTransform="matrix(1 0 0 1 0 -1012)">
				<stop  offset="0" style="stop-color:#F2F2F2"/>
				<stop  offset="0.1" style="stop-color:#F2F2F2;stop-opacity:0.97"/>
				<stop  offset="0.23" style="stop-color:#F3F3F3;stop-opacity:0.9"/>
				<stop  offset="0.37" style="stop-color:#F5F5F5;stop-opacity:0.79"/>
				<stop  offset="0.54" style="stop-color:#F7F7F7;stop-opacity:0.62"/>
				<stop  offset="0.71" style="stop-color:#FAFAFA;stop-opacity:0.41"/>
				<stop  offset="0.89" style="stop-color:#FDFDFD;stop-opacity:0.16"/>
				<stop  offset="1" style="stop-color:#FFFFFF;stop-opacity:0"/>
			</linearGradient>
			<path class="st2" d="M181.8,8.9C128.9,13.6,46.4,23.1,7.9,44.5V11.1c0-3.7,3.5-4.7,7.1-4.7h161.2C178.7,6.4,180.7,6.8,181.8,8.9z
				"/>
			<g class="st3">
				<path class="st4" d="M48.2,21h5.5v16.4h-5.5V21z"/>
				<path class="st4" d="M55.6,21h5.1l5.8,7.3V21H72v16.4h-4.9l-6.1-7.6v7.6h-5.4V21z"/>
				<path class="st4" d="M74,21h5.5v16.4H74V21z"/>
				<path class="st4" d="M81,29.2L81,29.2c0-5,3.8-8.6,8.7-8.6c3.6,0,6.1,1.8,7.4,4.3l-4.5,2.7c-0.6-1.2-1.5-2-3-2
					c-1.9,0-3.1,1.6-3.1,3.6v0c0,2.1,1.3,3.6,3.1,3.6c1.5,0,2.4-0.8,3.1-2.1l4.5,2.6c-1.4,2.4-3.7,4.4-7.8,4.4
					C85,37.8,81,34.3,81,29.2z"/>
				<path class="st4" d="M98.4,21h5.5v16.4h-5.5V21z"/>
				<path class="st4" d="M111.6,20.9h5.4l6.9,16.6h-6l-0.9-2.2h-5.8l-0.8,2.2h-5.9L111.6,20.9z M115.7,31.3l-1.5-4l-1.5,4H115.7z"/>
				<path class="st4" d="M124.6,21h8c2.9,0,4.8,0.7,5.9,1.9c1,1,1.5,2.2,1.5,3.9v0c0,2.4-1.2,4.1-3.2,5l3.8,5.6h-6.3l-3.1-4.7h-1.2
					v4.7h-5.5V21z M132.5,28.8c1.3,0,2.1-0.6,2.1-1.6v0c0-1.1-0.8-1.6-2.1-1.6h-2.4v3.2H132.5z"/>
			</g>
		</g>
	</g>
</g>
</svg>
