<svg xmlns="http://www.w3.org/2000/svg" viewBox="0 0 52.38 52.38"><defs><style>.cls-1{fill:#2e3190;}.cls-2{fill:#fff;}</style></defs><title>mail</title><g id="Capa_2" data-name="Capa 2"><g id="Capa_1-2" data-name="Capa 1"><rect class="cls-1" width="52.38" height="52.38" rx="10.76"/><g id="Internet"><path class="cls-2" d="M26.5,29.16,43.12,15.78a2,2,0,0,0-1.21-.43H11.09a2,2,0,0,0-1.21.43Z"/><path class="cls-2" d="M43.93,36.41a2.33,2.33,0,0,0,.07-.53v-18l-10,8Z"/><path class="cls-2" d="M32.34,27.28,26.5,32l-5.84-4.69L10.55,38a1.91,1.91,0,0,0,.54.09H41.91a1.91,1.91,0,0,0,.54-.09Z"/><path class="cls-2" d="M19,25.9,9,17.89v18a2.33,2.33,0,0,0,.07.53Z"/></g></g></g></svg>