<svg xmlns="http://www.w3.org/2000/svg" xmlns:xlink="http://www.w3.org/1999/xlink" width="769.1" height="481.345" viewBox="0 0 769.1 481.345"><defs><style>.a{fill:#eeebf4;}.b{fill:url(#a);}.c,.e{fill:#eb5b25;}.d{fill:url(#b);}.e,.i,.j,.k,.n{fill-rule:evenodd;}.f,.j{fill:#513692;}.g,.k{fill:#fff;}.h,.l{fill:#202020;}.h{opacity:0.2;}.i{fill:#aa9dc9;}.m{fill:#383838;}.n,.p{fill:#f4c58f;}.o{fill:#363636;}</style><linearGradient id="a" x1="16.529" y1="-0.026" x2="17.64" y2="1.069" gradientUnits="objectBoundingBox"><stop offset="0" stop-color="#543991"/><stop offset="0.247" stop-color="#573990"/><stop offset="0.411" stop-color="#603b8b"/><stop offset="0.551" stop-color="#6f3d84"/><stop offset="0.658" stop-color="#80407b"/><stop offset="1" stop-color="#e95f28"/></linearGradient><linearGradient id="b" y1="0.5" x2="1" y2="0.5" gradientUnits="objectBoundingBox"><stop offset="0" stop-color="#543991"/><stop offset="0.205" stop-color="#573990"/><stop offset="0.34" stop-color="#603b8b"/><stop offset="0.455" stop-color="#6f3d84"/><stop offset="0.544" stop-color="#80407b"/><stop offset="0.803" stop-color="#97486d"/><stop offset="1" stop-color="#e95f28"/></linearGradient></defs><ellipse class="a" cx="373.537" cy="30.337" rx="373.537" ry="30.337" transform="translate(22.026 420.671)"/><g transform="translate(624.757 287.084)"><path class="b" d="M260.749,230.255s64.865,36.227,111.532-41c22.092-34.544,25.355-75.068,25.355-75.068l-58.525,9.895s-96.372,10.991-84.471,92.764Z" transform="translate(-253.623 -114.186)"/><g transform="translate(8.846 10.586)"><path class="c" d="M257.655,213.335a.725.725,0,0,1-.462-.162.758.758,0,0,1-.14-1.059c.213-.278,21.955-28.047,65.389-45.422.416-.151,38.627-14.086,58.843-48.22a.766.766,0,0,1,1.04-.262.75.75,0,0,1,.267,1.032c-20.5,34.617-59.224,48.722-59.61,48.86-43.035,17.215-64.517,44.66-64.728,44.936A.76.76,0,0,1,257.655,213.335Z" transform="translate(-256.899 -118.106)"/><path class="c" d="M310.39,201.112a.75.75,0,0,1-.456-.154c-25.419-19.273-46.791-16.395-47.01-16.368a.754.754,0,0,1-.567-1.348c6.2-4.731,10.751-38.706,12.3-56.013a.78.78,0,0,1,.824-.689.761.761,0,0,1,.689.821c-.173,1.95-4.121,45.308-11.5,55.584,5.965-.23,24.731.535,46.186,16.8a.76.76,0,0,1-.459,1.364Z" transform="translate(-248.122 -103.766)"/><path class="c" d="M314.989,188.466a.75.75,0,0,1-.732-.562c-5.142-19.484-39.319-19.095-39.651-19.095a.757.757,0,0,1-.4-1.41c3.948-2.333,8.939-27.761,11.323-44.285a.756.756,0,0,1,1.5.216c-.575,3.945-5.374,36.289-10.7,43.983a80,80,0,0,1,16.64,2.228c12.625,3.184,20.491,9.4,22.754,17.972a.76.76,0,0,1-.537.926A.6.6,0,0,1,314.989,188.466Z" transform="translate(-228.103 -110.69)"/><path class="c" d="M318.722,168.855a.757.757,0,0,1-.559-.248c-9.1-10.027-32.611-7.132-32.849-7.1a.753.753,0,0,1-.843-.6.766.766,0,0,1,.543-.883c2.6-.71,8.066-20.918,11.858-40.032a.754.754,0,1,1,1.48.289c-.019.1-1.979,9.973-4.475,19.875-3.111,12.325-5.225,17.448-6.6,19.635,6.2-.5,23.964-1.072,32.006,7.8a.756.756,0,0,1-.559,1.267Z" transform="translate(-210.036 -115.94)"/><path class="c" d="M312.593,143.279a.75.75,0,0,1-.494-.181c-5.228-4.483-15.134-.586-15.231-.545a.757.757,0,0,1-.861-.213.769.769,0,0,1-.065-.886c2.06-3.343.98-17.18.389-22.228a.763.763,0,0,1,.664-.84.773.773,0,0,1,.843.664c.078.691,1.766,15.412.067,21.55,3.224-.991,10.567-2.6,15.179,1.35a.749.749,0,0,1,.078,1.064A.757.757,0,0,1,312.593,143.279Z" transform="translate(-190.696 -117.639)"/></g></g><g transform="translate(0 241.462)"><path class="d" d="M31.873,103.471c-15.2,11.345-10.07,33.254-.311,40.385,25.379,18.579,29.071.883,26.054,47.6-1.485,23.062,13.486,21.85,27.6,20.637,14.48-1.237,28.061-2.482,22.057,22.473-11.863,49.292,57.574,67.042,98.743,12.676,24.412-32.225,13.918-94.673-36.205-78.611-26.456,8.485-25.365-6.052-25.536-20.588-.154-13.005-1.31-26.014-24.129-22.525-48.306,7.391-30.259,2.174-52.038-20.2a26.671,26.671,0,0,0-18.887-8.026c-5.479,0-11.431,1.763-17.35,6.179" transform="translate(-22.272 -97.292)"/><path class="e" d="M110.121,168.3c-1.056-.948-2.1-1.888-3.16-2.827-10.9-9.781-22.063-19.365-33.661-28.528l-.735-.581c-4.226-3.181-9.927-7.467-9.927-7.467L59.1,126.3c-9.079-6.694-18.277-13.254-26.826-20.542l-1.761-.119c-.024.467-.051.94-.078,1.407,8.1,7.975,16.889,15.285,25.533,22.77l3.308,2.868q3.974,3.362,7.942,6.727l1.5,1.277c1.707,1.385,3.411,2.781,5.112,4.172,9.228,7.58,18.158,15.3,26.94,23.1-3.967.211-7.993.824-11.925,1.218-5.784.6-11.574,1.264-17.359,1.9,0,0-8.555,1.156-14.882,1.888,0,0-.764.07-.043.683,13.721-.748,27.253-2.193,41.239-3.508,1.709-.149,3.427-.267,5.117-.273,18.131,16.173,35.7,32.668,54.082,48.93.313.278.629.559.942.834q-1.9.134-3.8.329L153.8,220c-13.546,2.158-26.986,6.408-40.51,8.434l-1.4,1.291,1.131.934c13.448-1.728,26.816-5.663,40.342-7.683,0,0,3.157-.637,7.005-1.175,15.746,13.978,31.393,28.074,46.648,42.589l6.13,4.88c1.269.564,1.267.562,2.517,1.164l3.1.049s-.038-2.009-.062-3.016c0,0-.645-1.2-1.426-2.884-1.952-2.166-4.591-5.1-4.591-5.1-18-16.981-36.651-33.434-55.368-49.778,1.8-5.447,3.281-10.95,4.688-16.457l1.491-6.179c.332-1.628.772-3.748.772-3.748.108-.6.219-1.194.335-1.793q.385-2.038.789-4.08c.394-1.952.61-2.906.61-2.906l-.586-.956a2.789,2.789,0,0,0-1.256,1.331c-1.158,3.462-2.587,8.169-2.587,8.169-.483,1.755-1.018,3.754-1.018,3.754-1.628,7.132-3.038,14.267-4.974,21.345-14.21-12.4-28.447-24.747-42.47-37.223a198.786,198.786,0,0,1-6.735-33.983s-.9-5.784-1.342-9.714c0,0-.834-.988-.816.924.041,3.813.265,9.13.265,9.13a188.887,188.887,0,0,0,5.636,30.985" transform="translate(-8.399 -83.105)"/></g><path class="d" d="M155.179,209.607c12.282,13.6,26.77,24.893,43.124,32.265l.616.437c2.584,2.385.675,1.275.675,1.275a15.911,15.911,0,0,0-1.612-.13c-16.5-6.948-30.8-18.144-43.3-31.7l-.181.238-.8-.686a6.423,6.423,0,0,0-.113-.756q-1.183-1.308-2.341-2.633c-7.386,1.952-13.878,7.448-20.04,12.055-13.994,10.429-28.255,20.937-44.353,25.339-1.674.462-4.151,1.061-4.151,1.061-2.414.289-5.317-.47-4.259-2.069l1.045-.718c.143-.084.292-.181.44-.275,11.077-6.91,20.5-15.892,31.766-23.3,9.795-6.443,20.47-11.423,31.59-13.176a45.563,45.563,0,0,1,6.565-.556,226.414,226.414,0,0,1-16.505-22.16l-.2.078a2.643,2.643,0,0,1-.978-.189c-13.943-3.721-29.333,2.074-44.939,3.008-10.564.621-21.471.745-30.861-1.709a30.224,30.224,0,0,1-3.289-1.2c-.165-.124-.324-.254-.481-.389a4.15,4.15,0,0,1-.305-.311,2.717,2.717,0,0,1-.213-.248c-.718-.9-1.294-2.379,1.229-2.487,1.518-.108,6.3-1.015,10.246-1.782,9.984-1.947,19.994-4.383,30.075-5.2,11.977-.969,24.515-1.8,34.607,3.956a14.856,14.856,0,0,1,1.6,1.032c-4.645-7.407-8.966-15.007-12.995-22.633q-1.555-2.949-3.095-5.906c-.119.013.537.2-2.028-.629-11.655-3.794-24.45-3.408-37.148-4.685-8.966-.91-17.853-2.123-26.77-3.454-7.37-1.115-15.047-2.439-20.529-6.975a3.088,3.088,0,0,1-.743-1.191c.073-1.231-.281-.964.959-1.3,2.066-.564,4.645.232,7.375.154,18.766-.578,37.788-1.647,55.411,2.614a55.611,55.611,0,0,1,14.531,5.593,30.143,30.143,0,0,1,6.665,5.458c-5.549-10.845-10.931-21.841-16.362-32.8-.362-.208-.624-.354-.624-.354-1.188-1.056-1.361-.762-1.742-.856-1.383-.329-3.424-.67-3.424-.67-.265-.059-.532-.108-.794-.159-8.274-1.585-16.959-1.442-25.338-2.806-11.007-1.79-21.534-5.817-31.56-10.24-1.861-.829-4.834-2.968-2.687-3.87,1.069-.446,2.452.354,2.7.375,1.869.157,3.74.335,5.614.489,14.086,1.191,28.471,1.188,41.979,6.289a48.545,48.545,0,0,1,14.148,8.3c-4.137-8.339-8.312-16.648-12.611-24.847-1.488-2.841-2.984-5.666-4.521-8.469-4.367-5.066-9.287-9.568-14.026-14.253-10.61-10.5-21.312-21.282-29.54-33.378a40.561,40.561,0,0,1-4.253-7.548,2.927,2.927,0,0,1-.07-1.609c.635-.856-1.1-2.385,5.02,1.256C52,31.652,69.674,49.456,80.082,71.206,83.1,77.571,86.128,84,87.354,91.086q2.094,4.16,4.14,8.369c-1.89-16.773,3.754-35.6,10.111-53.591A87.449,87.449,0,0,1,107.3,32.23c1.315-2.341,2.549,1.2,2.549,1.2,1.523,4.758,1.294,10.173.856,15.563-1.747,20.775-15,40.045-14.437,60.31.478,1,.959,2,1.439,3,.554.335.8.548.421.532l-.116.105c3.6,7.5,7.178,15.009,10.829,22.438-2.671-12.22-.586-25.73,3.478-38.274.076-.221.076-.221.151-.451,3.659-10.688,9.233-20.623,14.431-30.594.737-1.48,1.383-4.548,2.817-2.363a2.991,2.991,0,0,1,.864,2.231,29.288,29.288,0,0,1,.154,7.216c-1.18,13.478-3.991,26.786-7.791,40.683-3.111,11.393-8.371,22.589-7.683,34.374,3.6,7.016,7.313,13.94,11.21,20.688a54.232,54.232,0,0,1-.583-10.578c.951-12.7,6.395-25.012,11.374-36.613,2.827-6.589,5.63-13.194,8.752-19.592.942-1.931,1.088-5.5,3.313-3.721l.751.832c2.59,6.6.7,14.979-1.318,23.011-3.935,15.665-10.9,30.569-14.245,46.283a36.919,36.919,0,0,0-.867,12.249,241.281,241.281,0,0,0,15.709,22.028c.1.116.189.232.286.346-3.079-9.306-1.51-21.142,1.223-31.366,3.683-13.778,8.666-27.161,12.892-40.734.389-1.288.843-2.949.843-2.949,1.013-1.234,1.269-.184,1.423.5.2.7.243.84.248.856a157.914,157.914,0,0,1-.419,20.648,238.179,238.179,0,0,1-7.718,43.767c-1.429,5.182-2.9,10.462-2.957,15.749m11.088-80.163v-.005s0,.005,0,.005" transform="translate(-15.037 9.768)"/><path class="f" d="M556.679,386.7H108.536a38.418,38.418,0,0,1-38.417-38.417V80.845a38.417,38.417,0,0,1,38.417-38.414H556.679A38.423,38.423,0,0,1,595.1,80.845V348.286a38.424,38.424,0,0,1-38.42,38.417" transform="translate(59.091 50.881)"/><rect class="g" width="465.996" height="274.757" transform="translate(158.705 122.137)"/><path class="f" d="M48.451,158.3H688.019s0,48.392-63.874,44h-511.4s-64.3,2.517-64.3-44" transform="translate(22.245 247.913)"/><path class="h" d="M48.451,158.3H688.019s0,48.392-63.874,44h-511.4s-64.3,2.517-64.3-44" transform="translate(22.245 247.913)"/><path class="g" d="M276.846,171.788H148.366a8.4,8.4,0,0,1-8.4-8.4H285.25a8.4,8.4,0,0,1-8.4,8.4" transform="translate(177.871 256.568)"/><path class="i" d="M222.025,36.517l.816-.111.829-.113.826-.111.829-.111,1.663-.213,1.666-.213,1.677-.221.834-.108L232,35.2l.834-.119.834-.119.832-.122.826-.124.834-.135.826-.135.818-.143.821-.146.821-.157.408-.076.4-.081.405-.084.405-.081.408-.089.4-.092.4-.089.4-.092.4-.095.394-.1.4-.1.394-.1.389-.1.389-.105.389-.111.389-.111.383-.116.383-.116.383-.119.383-.119.373-.127.386-.13.132-.041.13-.027.138-.019.14-.011.138,0,.14.011.135.024.13.032.135.043.124.049.13.059.119.076.111.076.108.086.1.095.089.105.086.111.073.111.073.122.054.124.049.13.043.135.024.135.024.132.005.138,0,.14-.008.138-.024.135-.03.138-.043.127-.051.127-.059.127-.073.122-.081.111-.086.105-.092.1-.1.092-.108.084-.119.078-.116.068-.127.057-.13.049-.4.138-.408.135-.408.127-.408.132-.41.122-.413.124-.408.113-.413.116-.413.111-.413.113-.421.108-.416.108-.41.1-.424.1-.416.095-.421.1-.419.092-.424.092-.421.089-.421.086-.427.086-.424.078-.845.162-.845.151-.848.149-.851.14-.845.132-.856.127-.853.127-.843.124-.851.116-.848.113-.843.116-1.682.213-1.672.219-1.663.213-.821.108-.818.111-.813.111-.816.116-.13.011-.146.005-.13-.008-.14-.016-.138-.027-.135-.038-.13-.046L221.463,40l-.127-.062-.119-.076-.111-.086-.1-.092-.1-.1-.089-.105-.076-.111-.076-.119-.065-.124L220.556,39l-.051-.127-.032-.132-.022-.14-.016-.135-.005-.14.008-.138.016-.135.027-.138.032-.132.051-.13.059-.124.062-.122.078-.119.086-.111.089-.105.094-.092.105-.089.113-.081.119-.073.122-.065.13-.054.122-.043.138-.035Z" transform="translate(314.689 32.586)"/><path class="j" d="M218.886,11.419l.167-.011.162.005.167.019.162.032.159.046.151.062.151.076.138.086.127.1.13.113.24.24.24.232.24.23.235.235.246.227.254.227.24.227.251.224.251.221.254.224.259.221.254.216.265.219.251.219.532.435.532.427.537.424.537.424.554.413.548.416.554.413.564.413.562.408.559.41.57.405,1.145.813,1.15.813,1.148.816.575.41.572.408.575.413.573.419.567.416.573.424.559.427.564.427.654.513.656.51.648.516.643.518.645.518.64.524.637.524.637.527.637.532.629.529,1.253,1.059,1.258,1.064,1.248,1.067,1.248,1.061L250.614,36l1.25,1.056.621.524.621.521.629.521.621.513.632.516.627.513.629.5.64.5.627.5.645.5.122.108.119.119.105.13.092.135.081.149.068.149.051.159.041.159.024.165.008.165-.005.165-.019.165-.035.165-.051.154-.065.154-.078.146-.084.14-.1.132-.116.119-.127.111-.132.1-.14.081-.148.076-.157.062-.157.043-.165.032-.162.019h-.162l-.165-.011-.173-.032-.157-.041-.159-.057-.143-.068-.143-.086-.135-.095-.654-.5-.651-.513-.643-.518-.648-.518-.64-.518-.64-.527-.632-.521-.637-.529-.629-.527-.632-.527-1.261-1.064-1.248-1.064-1.25-1.067-1.248-1.061-1.25-1.061-1.25-1.053L241.356,33l-.624-.521-.629-.521-.627-.516-.629-.516-.629-.513-.632-.5-.635-.51-.635-.5-.64-.494-.545-.416-.54-.405-.551-.408-.551-.41-.559-.408-.562-.405-.567-.408-.567-.4-1.145-.813-1.148-.813-1.159-.818-.578-.416-.573-.419-.575-.416-.572-.421-.575-.429-.573-.429-.564-.432L223.2,19.3l-.556-.443-.562-.451-.559-.454-.275-.232-.27-.232-.275-.235-.273-.235-.273-.24-.267-.235-.27-.24-.262-.246-.27-.243-.262-.246-.259-.251-.262-.251-.259-.251-.251-.254-.113-.122-.1-.132-.086-.138-.081-.146-.057-.157-.049-.159-.035-.159-.016-.167-.005-.165.014-.165.022-.162.041-.165.054-.151.067-.151.078-.146.1-.138.1-.13.122-.116.124-.105.135-.095.146-.084.151-.068.157-.054.162-.043Z" transform="translate(309.286 -1.873)"/><path class="i" d="M236.913,7.9l.116-.014.119-.005.122.005.124.011.116.019.122.027.113.035.116.043.108.049.108.057.1.062.1.073.094.073.092.084.078.089.081.095.068.1.062.1.057.108.054.108.04.116.211.6.205.6.213.6.208.6.427,1.2L240.6,13.9l.438,1.191.448,1.191.448,1.188.454,1.194.9,2.376.9,2.387.456,1.2.454,1.194.448,1.2.443,1.2.032.116.032.116.024.116.014.122.008.119,0,.124-.008.119-.019.122-.024.116-.03.116-.038.113-.051.116-.049.108-.065.1-.07.1-.073.1-.081.095-.084.084-.092.081-.1.07-.1.07-.108.057-.105.051-.116.049-.113.035-.116.03-.119.024-.116.016-.127.008h-.116l-.124-.014-.114-.016-.119-.022-.116-.032-.119-.038-.105-.049-.111-.054-.1-.062-.1-.068-.1-.076-.095-.078-.084-.084-.078-.095-.07-.1-.07-.1-.059-.105-.049-.108-.051-.111-.435-1.194-.446-1.188-.446-1.191-.456-1.188-.9-2.382-.91-2.385-.454-1.2-.451-1.2-.448-1.2-.446-1.2-.44-1.2-.427-1.21-.224-.61-.211-.6-.211-.613-.208-.608-.041-.113-.024-.122-.019-.113-.014-.124-.008-.119.005-.122.016-.122.016-.119.027-.116.035-.116.038-.113.051-.108.059-.108.062-.1.067-.1.076-.092.089-.086.081-.081.1-.078.094-.073.1-.065.111-.054.108-.049.111-.046.113-.038.124-.022Z" transform="translate(339.992 -7.877)"/><path class="k" d="M244.3,71.183l.078,0,.076.008.073.008.076.013.073.013.07.022.076.016.073.024.065.03.073.027.067.035.073.03.062.038.062.04.065.043.062.043.057.046.059.049.054.049.054.054.057.054.046.057.046.065.051.057.035.062.046.062.035.065.038.073.03.065.03.068.03.073.019.07.03.068.022.076.013.07.013.078.07.47.049.267.027.278.022.159.013.157.008.162.011.162.005.173,0,.181-.008.178-.016.186-.032.23-.027.219-.043.211-.038.189-.035.186-.043.17-.073.313-.032.132-.027.13-.022.113-.022.1-.008.086-.008.084v.076h0v.013l.005.014.005.024,0,.022.013.03.011.027.016.038.013.043.019.038.024.046.022.035.059.113.03.051.022-.014.065-.035.07-.032.073-.03.073-.027.07-.027.073-.016.073-.019.073-.014.076-.013.073-.008.076-.008.076,0h.148l.078.005.073.008.073.008.078.016.076.019.07.016.07.022.07.03.076.019.068.032.068.035.067.035.062.035.068.043.062.043.062.046.057.046.057.051.051.046.057.054.049.059.054.057.041.062.049.062.038.059.043.062.035.07.03.062.035.07.03.076.027.065.022.073.019.073.019.073.016.073.013.076.008.076.008.076,0,.073v.154l-.005.076-.005.076-.011.073-.013.073-.019.073-.022.073L249,80.27l-.022.07-.035.073-.03.068-.027.068-.035.068-.04.065-.038.065-.046.059-.046.065-.041.057-.054.059-.046.054-.065.054-.054.049-.054.049-.062.043-.057.043-.051.035-.022.022-.051.041-.07.059-.186.17-.135.108-.151.116-.157.116-.108.076-.113.068-.113.068-.14.065-.14.065-.165.059-.165.054-.189.043-.205.03-.216.019-.13-.008h-.062l-.057-.005-.062-.005-.043-.005-.065-.005-.059-.008-.059-.011-.051-.011-.057-.013-.057-.014-.057-.016-.051-.016L245,82.349l-.054-.016-.059-.024-.057-.024-.035-.011-.062-.032-.07-.032-.057-.038-.065-.035-.03-.022-.062-.038-.057-.043-.062-.046-.094-.078-.138-.132-.108-.116-.1-.122-.105-.157-.081-.124-.054-.078-.011-.011-.167-.221-.119-.159-.124-.173-.13-.176-.121-.184-.127-.205-.13-.213-.116-.213-.062-.127-.059-.119-.057-.124-.051-.127L242.32,79l-.054-.135-.043-.143-.046-.146-.041-.146-.035-.151-.03-.162-.03-.165-.013-.167-.011-.167,0-.143V77.34l0-.124.008-.143.016-.23.04-.23.032-.213.038-.2.041-.189.046-.181.073-.321.032-.146.035-.135.024-.122.016-.1.014-.089.011-.081,0-.035,0-.051v-.119l-.005-.07-.005-.081-.008-.081-.008-.081-.022-.194-.035-.208-.068-.446-.011-.073-.008-.076-.005-.078-.005-.07.005-.081,0-.07.005-.076.011-.073.011-.076.016-.078.016-.073.019-.07.032-.073.022-.065.027-.073.03-.067.035-.073.041-.059.035-.068.043-.062.043-.062.049-.059.051-.059.049-.051.054-.057.057-.049.051-.051.062-.046.059-.049.065-.043.062-.041.062-.038.07-.03.065-.035.073-.032.07-.024.073-.027.07-.022.073-.019.073-.016.07-.013.078-.014.073-.005.081-.005.073,0Z" transform="translate(351.395 99.768)"/><g transform="translate(516.523 36.387)"><path class="l" d="M245.017,199.918c-.043.659-2.482,91.819-.5,92.945l23.351,1.658c1.448-1.766,18.242-146.681,20.956-157.011,7.64-29.071-1.24-47.007-19.816-62.681-16.141-13.621-22.16,45.087-22.878,59.243-.735,14.672-.632,57.979-.632,57.979Z" transform="translate(-162.192 66.126)"/><path class="m" d="M256.015,136.713c-3.224-12.206-7.578-72.883,10.861-62.837C288.1,85.431,300.267,101.2,298.45,131.3c-1.134,18.814-4.008,167.281-1.6,163.278,1.121-1.858-18.436.162-21.237-1.658C275.617,292.924,259.768,150.909,256.015,136.713Z" transform="translate(-146.233 66.065)"/><g transform="translate(0 66.193)"><path class="n" d="M312.375,46.076c-11.569,10.216-27.9,38.093-27.9,38.093a98.508,98.508,0,0,1-12.144-7.313C259.789,68.039,250.048,60.3,244.512,58.6a15.559,15.559,0,0,1-1.253-2.3c-1.628-3.921-.975-7.537-2.946-7.534-.092,0-.4-.459-.813,1.15-.03.1-.4,1.218-.616,1.966a43.918,43.918,0,0,0-.346,4.98v.092a79.8,79.8,0,0,0-11.936-.51c-1.742.014-10.891,1.007-10.688,2.214.057.37,2.457.111,3.34.1a47.991,47.991,0,0,1,6.773.108c.6.086,1.361-.03,1.888.043.081.011.743-.095.691.011-.076.173-.913.162-1.067.189-.94.162-1.871.246-2.811.362a36.593,36.593,0,0,0-8.174,1.5c-1.026.37-2.366.783-2.8,1.723-.194.416,12.441-.689,13.095-.594.051.005.78-.076.716.07-.046.1-.689.248-.78.286-.732.262-3.656,1.321-6.36,2.163-1.285.405-5.955,2.374-6.054,3.146-.065.548.645.478.924.518.988.138,7.629-1.877,9.984-2.09.8-.07,1.612-.359,2.4-.47.413-.059,1.248-.186,1.248-.186s-.759.34-1.156.478c-.759.275-1.518.545-2.287.821a35.439,35.439,0,0,0-6.435,3.365c-.551.332-1.277.816-1.366,1.531-.07.545,6.414-1.647,8.712-2.152a39.5,39.5,0,0,1,8.069-1.072,20.866,20.866,0,0,1,11.9,4.261c12.546,17.488,39.808,44.107,48.217,33.926,14.564-17.648,31.739-36.429,31.62-48.22C326.145,53.016,312.375,46.076,312.375,46.076Zm-72.07,3.305c.049-.046-.127.149,0,0Z" transform="translate(-213.193 -45.501)"/><path class="o" d="M289.874,109.883h0c-11.4,0-32.6-21.091-43.569-36.351a20.284,20.284,0,0,0-11.428-4.086,39.038,39.038,0,0,0-8.01,1.059c-.807.176-2.15.57-3.578.988a30.52,30.52,0,0,1-5.055,1.264.808.808,0,0,1-.613-.23.694.694,0,0,1-.151-.491,3,3,0,0,1,1.634-1.95l.205-.127a48.739,48.739,0,0,1,4.442-2.5c-1.059.227-2.3.532-3.435.816a30.958,30.958,0,0,1-4.558.951c-.024,0-.167-.011-.194-.011a1.586,1.586,0,0,1-1.2-.419.907.907,0,0,1-.205-.729c.186-1.41,6.387-3.6,6.446-3.621q1.693-.523,3.837-1.272c-.489.032-1.013.07-1.561.111-2.857.192-6.419.437-7.983.437-.743,0-1.069-.03-1.261-.335a.6.6,0,0,1-.043-.562c.508-1.094,1.836-1.564,2.9-1.944l.224-.081a25.234,25.234,0,0,1,5.188-1.161l-.689.016c-.543.014-1.086.027-1.6.03-.208,0-.513.022-.845.041-.489.027-1.04.057-1.5.057-.578,0-1.453,0-1.561-.675a.86.86,0,0,1,.208-.7c1.2-1.42,9.965-2.16,11.042-2.171.867-.008,1.744-.016,2.619-.016a70.391,70.391,0,0,1,8.755.448c.038-2.017.335-4.386.348-4.5.159-.583.373-1.25.508-1.672.062-.186.1-.321.116-.367.213-.845.508-1.634,1.183-1.634a1.173,1.173,0,0,1,.286.062c1.555.07,1.861,1.72,2.22,3.619a20.551,20.551,0,0,0,1.148,4.259,14.338,14.338,0,0,0,1.094,2.044c4.313,1.407,10.967,6.195,19.343,12.236,2.644,1.907,5.458,3.935,8.436,6.03a101.242,101.242,0,0,0,11.6,7.027c2.187-3.67,17.051-28.333,27.736-37.774a.571.571,0,0,1,.632-.084c.573.289,14.078,7.167,14.134,12.911.105,10.513-13.24,26.454-26.149,41.868-1.882,2.247-3.764,4.488-5.6,6.716A6.764,6.764,0,0,1,289.874,109.883ZM234.812,68.312a21.558,21.558,0,0,1,12.263,4.383.721.721,0,0,1,.108.113c10.8,15.066,31.663,35.941,42.689,35.943h0a5.647,5.647,0,0,0,4.629-2.05c1.839-2.228,3.719-4.472,5.6-6.721,12.776-15.258,25.989-31.034,25.887-41.128-.043-4.075-9.209-9.681-13.17-11.736-11.356,10.248-27.331,37.426-27.5,37.7a.569.569,0,0,1-.735.224,99.521,99.521,0,0,1-12.222-7.353c-2.981-2.1-5.8-4.129-8.45-6.036-8.428-6.076-15.088-10.872-19.217-12.139a.585.585,0,0,1-.313-.238,15.934,15.934,0,0,1-1.294-2.393,21.55,21.55,0,0,1-1.213-4.485,6.874,6.874,0,0,0-.7-2.43.668.668,0,0,1-.753.373c-.005.03-.016.057-.024.086s-.057.2-.135.432c-.135.41-.346,1.059-.481,1.547h0a44.606,44.606,0,0,0-.321,4.82.658.658,0,0,1-.194.478.571.571,0,0,1-.451.178,66.874,66.874,0,0,0-9.246-.518c-.87,0-1.739.005-2.611.011a51.3,51.3,0,0,0-8.976,1.261c.246-.011.486-.027.71-.038.357-.019.683-.041.907-.043.513,0,1.051-.016,1.591-.03.7-.016,1.407-.035,2.12-.035a22.459,22.459,0,0,1,3.146.181,3.7,3.7,0,0,0,.5.027l.856-.014a3.687,3.687,0,0,1,.535.03,3.325,3.325,0,0,1,.473-.043.692.692,0,0,1,.621.292.628.628,0,0,1,.035.567c-.2.435-.748.462-1.329.494l-.162.011c-.683.116-1.366.194-2.055.273l-1.639.189a32.094,32.094,0,0,0-7.189,1.375l-.227.081a8.885,8.885,0,0,0-1.5.629c1.707-.041,4.85-.254,7.421-.432,2.087-.143,3.732-.257,4.275-.257.024,0,.192.008.213.011a2.412,2.412,0,0,1,.343-.022.854.854,0,0,1,.77.316.62.62,0,0,1,.035.575c-.146.305-.443.4-.991.551,0,0-.184.059-.189.059-2.436.88-4.561,1.6-6.306,2.147a28.03,28.03,0,0,0-5.45,2.541h.008c.084.005.162.011.224.022h0a33.431,33.431,0,0,0,4.315-.918A48.23,48.23,0,0,1,225.581,66a8.557,8.557,0,0,0,1.237-.238c.378-.089.762-.178,1.137-.232l1.242-.186a.569.569,0,0,1,.313,1.08s-.786.348-1.191.5l-2.29.821a33.6,33.6,0,0,0-6.127,3.184l-.205.13a4.263,4.263,0,0,0-.621.424c.994-.227,2.563-.686,3.894-1.075,1.447-.421,2.808-.821,3.656-1.007a40.217,40.217,0,0,1,8.185-1.083Z" transform="translate(-213.543 -45.863)"/></g><g transform="translate(126.118 65.233)"><path class="n" d="M366.411,64.248c-2.738-.721-5.706-1.642-6.46-1.871-.086-.027-.734-.149-.786-.243-.078-.149.662-.095.7-.108.648-.119,13.327.392,13.113-.016-.483-.924-1.839-1.272-2.879-1.591A36.98,36.98,0,0,0,361.86,59.3c-.945-.065-1.88-.111-2.827-.224-.151-.019-.978.03-1.072-.138-.054-.108.61-.03.7-.046.516-.1,1.288-.014,1.88-.13a48.235,48.235,0,0,1,6.765-.427c.878-.032,3.289.113,3.33-.259.146-1.213-9.047-1.777-10.78-1.712a79.383,79.383,0,0,0-11.906,1.072l0-.086a43.577,43.577,0,0,0-.567-4.961c-.251-.74-.678-1.834-.71-1.936-.486-1.588-.778-1.118-.872-1.113-1.961.089-1.142,3.673-2.584,7.661a16.809,16.809,0,0,1-1.134,2.358c-5.449,1.947-14.823,10.135-26.948,19.538a98.469,98.469,0,0,1-11.8,7.866S288.888,55.382,276.85,45.717c0,0-16.592,11.874-16.395,17.34.437,11.782,18.463,29.743,33.84,46.686,8.868,9.778,34.858-18.082,46.572-36.14a20.84,20.84,0,0,1,11.7-4.815,39.468,39.468,0,0,1,8.112.694c2.314.4,8.9,2.285,8.809,1.744-.127-.713-.875-1.161-1.439-1.469a34.909,34.909,0,0,0-6.586-3.057c-.778-.235-1.545-.478-2.322-.716-.4-.119-1.177-.429-1.177-.429s.834.095,1.258.135c.8.073,1.618.324,2.42.356,2.366.105,9.09,1.8,10.07,1.626.278-.057.994-.019.9-.564C372.473,66.34,367.715,64.585,366.411,64.248Zm-20.569-14.3c.135.143-.057-.038,0,0Z" transform="translate(-259.892 -45.151)"/><path class="o" d="M299.4,112.689a6.722,6.722,0,0,1-5.177-2.209c-1.936-2.139-3.916-4.291-5.9-6.443-13.613-14.8-27.7-30.1-28.082-40.6-.2-5.606,14.909-16.586,16.635-17.82a.576.576,0,0,1,.686.019c11.261,9.044,24.323,36.3,26.378,40.691A101.343,101.343,0,0,0,315.129,78.8c2.879-2.231,5.6-4.391,8.15-6.416,8.093-6.43,14.512-11.528,18.757-13.132a14.936,14.936,0,0,0,1-2.087,20.981,20.981,0,0,0,.945-4.307c.265-1.912.494-3.565,2.023-3.719a.824.824,0,0,1,.343-.078c.651,0,.972.764,1.223,1.585l.119.327c.162.41.411,1.086.583,1.593.032.184.454,2.587.578,4.556a83.357,83.357,0,0,1,11.342-.964l.34-.005c.095,0,9.514.232,10.8,1.677a.856.856,0,0,1,.229.672c-.089.713-.961.764-2.385.764l-1.137-.005-.354,0c-.505.019-1.026.032-1.547.041-.254.008-.5.011-.748.019a25.225,25.225,0,0,1,5.244.918l.232.07c1.075.327,2.422.732,2.981,1.8a.609.609,0,0,1-.022.578c-.194.321-.367.413-3.033.413-1.766,0-4.156-.051-6.222-.1l-1.539-.032c1.161.343,2.541.74,3.883,1.091.059.016,6.36,1.9,6.605,3.308a.922.922,0,0,1-.162.745,1.47,1.47,0,0,1-1.061.456,2.668,2.668,0,0,1-.424.038h0a34.75,34.75,0,0,1-4.486-.737c-1.161-.227-2.409-.478-3.475-.656a48.172,48.172,0,0,1,4.618,2.322l.149.081c.54.294,1.545.845,1.723,1.869a.651.651,0,0,1-.138.508.839.839,0,0,1-.67.254,33.457,33.457,0,0,1-5.017-1.029c-1.447-.351-2.814-.681-3.635-.821a39.439,39.439,0,0,0-8-.686,20.391,20.391,0,0,0-11.283,4.621C331.2,90.437,310.724,112.689,299.4,112.689Zm-22.211-65.9c-4.772,3.465-15.96,12.479-15.811,16.605.373,10.086,14.31,25.23,27.788,39.878,1.979,2.158,3.964,4.31,5.9,6.449a5.548,5.548,0,0,0,4.334,1.842c10.788,0,31.3-22.417,41.347-37.906a.523.523,0,0,1,.1-.116,21.447,21.447,0,0,1,12.049-4.953,39.948,39.948,0,0,1,8.228.7c.853.149,2.241.483,3.708.84,1.407.34,2.954.716,3.935.9a5.409,5.409,0,0,0-.64-.4l-.151-.081a33.621,33.621,0,0,0-6.335-2.93l-2.325-.713c-.41-.127-1.213-.446-1.213-.446a.565.565,0,0,1,.265-1.088s.837.089,1.248.127c.378.038.756.108,1.14.178a8.665,8.665,0,0,0,1.258.181,49.2,49.2,0,0,1,5.587.913,37.756,37.756,0,0,0,4.267.721c.146-.014.219-.024.308-.03a.464.464,0,0,1,.065-.011,28.741,28.741,0,0,0-5.622-2.274c-2.552-.675-5.266-1.507-6.287-1.817l-.2-.059c-.672-.157-.967-.238-1.118-.521a.626.626,0,0,1,.014-.594c.205-.346.629-.346.94-.346l.157,0c.224-.024,2.093-.005,4.464.043,2.058.046,4.437.1,6.195.1.529,0,.945-.008,1.261-.014a9.08,9.08,0,0,0-1.518-.554l-.238-.076a31.891,31.891,0,0,0-7.251-1.037l-1.561-.105c-.721-.046-1.437-.095-2.168-.184l-.154,0c-.57,0-1.118-.005-1.345-.429a.611.611,0,0,1,.013-.586.765.765,0,0,1,.713-.305l.281.005c.359-.038.7-.049,1.053-.054a5.775,5.775,0,0,0,.907-.059,33.665,33.665,0,0,1,5.323-.394c.518-.011,1.032-.024,1.531-.041.108-.005.248-.005.394-.005l1.137.005h.076a52.721,52.721,0,0,0-8.72-.843l-.3,0a78.734,78.734,0,0,0-11.812,1.064.572.572,0,0,1-.672-.551,43.509,43.509,0,0,0-.573-4.958c-.146-.416-.394-1.075-.543-1.474-.078-.211-.13-.359-.14-.394s-.024-.062-.035-.086a.545.545,0,0,1-.205.041h0a.683.683,0,0,1-.562-.375,6.815,6.815,0,0,0-.583,2.46,21.8,21.8,0,0,1-1,4.537A16.3,16.3,0,0,1,342.922,60a.553.553,0,0,1-.3.254c-4.064,1.456-10.491,6.559-18.631,13.024-2.549,2.028-5.277,4.194-8.158,6.424a99.877,99.877,0,0,1-11.863,7.92.61.61,0,0,1-.456.041.576.576,0,0,1-.332-.3C303.033,87.042,288.918,56.565,277.193,46.784Z" transform="translate(-260.245 -45.507)"/></g><path class="l" d="M292.074,71.4c3.635,2.625,8.8-8.712,10.807-11.977s3.424-7.41,1.315-11.4a8.611,8.611,0,0,1-1.126-2.482,4.471,4.471,0,0,1,.648-2.474c2.244-4.915-.77-11.218-4.143-16.683a10.722,10.722,0,0,0-3.1-3.438,10.9,10.9,0,0,0-5.255-1.523c-12.017-.878-19.1,6.565-31.085,5.919-3.5-.184-7.083-1.075-10.586-1.291s-7.135.356-9.092,2.619-1.434,6.557,1.739,8.558c2.047,1.288,4.475,1.315,6.7,1.285-3.235,2.457-2.4,7.966.959,11.558s8.471,5.425,13.162,5.852c3.5.316,7-.014,10.472,1.148,5.971,2.006,13.384,10.589,18.582,14.329" transform="translate(-169.729 -21.351)"/><g transform="translate(103.16 40.862)"><path class="p" d="M263.16,68.918c9.886-1.828,10.216-14.7,10.216-14.7l-4.65-12.376c-.691-4.14-5.531-6.168-10.381-4.65s-5.906,7.056-5.206,11.193L251.95,64.614c.694,4.14,6.654,4.788,9.3,4.3" transform="translate(-251.394 -36.129)"/><path class="o" d="M259.91,69.972a10.914,10.914,0,0,1-6.019-1.62,4.9,4.9,0,0,1-2.147-3.289L252.927,48.7c-.8-4.623.624-10.127,5.6-11.693a9.99,9.99,0,0,1,8.088.716,6.34,6.34,0,0,1,3.022,4.386l4.618,12.268a.709.709,0,0,1,.035.216c-.005.13-.456,13.348-10.678,15.239a.557.557,0,0,1-.656-.454.564.564,0,0,1,.451-.662c8.863-1.636,9.684-12.833,9.743-14.048l-4.6-12.268a5.259,5.259,0,0,0-2.525-3.708,8.808,8.808,0,0,0-7.154-.6c-4.942,1.553-5.355,7.367-4.826,10.556l-1.177,16.359a3.851,3.851,0,0,0,1.677,2.414,10.5,10.5,0,0,0,6.951,1.294.555.555,0,0,1,.656.454.57.57,0,0,1-.451.664A11.037,11.037,0,0,1,259.91,69.972Z" transform="translate(-251.744 -36.483)"/></g><g transform="translate(84.072 6.745)"><path class="p" d="M259.524,75.164c7.777,8.155,18.4-3.686,22.29-8.069,5.79-6.541,10.715-34.045-2.441-40.718s-29.287,2.441-33.594,9.865c-4.323,7.426,8.282,33.186,13.745,38.922" transform="translate(-244.308 -23.493)"/><path class="o" d="M265.983,78.885h0a8.79,8.79,0,0,1-6.5-2.973c-5.125-5.382-18.506-31.566-13.829-39.6,3.475-5.992,13.7-12.463,24.126-12.463A22.366,22.366,0,0,1,280,26.228c4.121,2.09,6.908,6.389,8.058,12.433,2,10.486-1.348,24.528-5.452,29.168C279.672,71.137,272.8,78.885,265.983,78.885Zm3.794-53.9c-9.714,0-19.811,6.154-23.146,11.9-4.043,6.956,8.245,32.546,13.67,38.244a7.689,7.689,0,0,0,5.682,2.625c6.308,0,13.181-7.758,15.765-10.678,3.94-4.445,7.135-18.018,5.19-28.2-1.08-5.684-3.662-9.705-7.456-11.628A21.18,21.18,0,0,0,269.777,24.986Z" transform="translate(-244.676 -23.849)"/></g><g transform="translate(117.953 26.34)"><path class="p" d="M257.774,35.55c-.888,3.7.038,6.938,1.858,7.278,6.1,1.126,9.084-.24,9.97-3.937s-1.237-6.354-4.5-7.275-6.441.24-7.329,3.935" transform="translate(-256.864 -30.751)"/><path class="o" d="M263.676,44.135h0a21.133,21.133,0,0,1-3.794-.394,2.672,2.672,0,0,1-1.734-1.258c-.98-1.51-1.2-4.08-.572-6.708a5.718,5.718,0,0,1,5.8-4.669,8.245,8.245,0,0,1,2.239.321c3.875,1.1,5.8,4.218,4.9,7.953C269.741,42.577,267.505,44.135,263.676,44.135Zm-.3-11.9a4.589,4.589,0,0,0-4.693,3.8c-.548,2.3-.389,4.588.419,5.822a1.568,1.568,0,0,0,.994.767,19.971,19.971,0,0,0,3.584.37h0c3.319,0,5.088-1.194,5.736-3.883.9-3.754-1.534-5.871-4.107-6.6A7.242,7.242,0,0,0,263.374,32.234Z" transform="translate(-257.222 -31.105)"/></g><path class="l" d="M245.61,35.349c1.993-3.859,6.276-6.546,10.64-8.093A80.43,80.43,0,0,1,268.712,24.2c3.986-.718,8.363-1.345,12.552-.772,7.893,1.069,8.968,10.329,8.425,16.087-.281,2.952,2.312,5.382.057,7.475-.964.9-3.219,1.069-4.656,1.145-1.712.089,2.5,9.179-1.037,10.421-.419.146-4.383-2.471-6.811-7.443-1.769-3.632-1.574-8.5-2.355-10.8-.394-1.161-1.464-3.17-2.344-3.022-1.345-.343-2.4.537-3.281,1.261-.991.821-1.782,1.9-2.7,2.8a26.486,26.486,0,0,1-5.315,4.14c-3.424,1.961-8.739,3.346-12.819,1.126a7.094,7.094,0,0,1-3.689-4.88.647.647,0,0,1-.23-.424A11.391,11.391,0,0,1,244.5,39a19.466,19.466,0,0,1,.483-3.557c.059-.27.44-.262.624-.095-.1.192-.192.386-.281.586l-.073,2.185a9.088,9.088,0,0,0-.159,2.922c.011.054.022.108.03.162l.016.068,0,.111c-.019-.116-.03-.227-.043-.34a14.165,14.165,0,0,1,.159-4.928A10.224,10.224,0,0,0,244.511,39a11.408,11.408,0,0,0,.24,2.736.835.835,0,0,0,.575.2c-.073-.221-.13-.44-.181-.664l.114-3.151a9.053,9.053,0,0,1,.321-1.134c.04-.467.089-.929.14-1.375a.342.342,0,0,0-.111-.262" transform="translate(-160.988 -18.197)"/><g transform="translate(71.342 58.024)"><path class="e" d="M336.649,84.947c.251-.1-15.328-32.262-29.84-37.015-.224-.146-.443-.311-.672-.448-2.112-1.283-9.047-3.446-12.835-4.3,0,0-1.1,19.184-17.134,13.929-6.727-2.2-2.409-11.134-2.409-11.134s-.122.059-.34.2c-7.934.394-10.6,4.18-15.806,10.173-9.495,10.931-17.545,26.519-17.377,26.575,3.527,5.555,11.142,13.135,14.977,16.8-.7,13.8-1.026,28.574-1.512,37.407-.37,6.694-.8,13.189-1.339,19.262,21.647,8.585,41.206-.951,63.267-3.562a2.977,2.977,0,0,0,1.634-.543c.856-.743.716-2.2.508-3.43a343.382,343.382,0,0,1-4.6-50.1c2.169,4.2,3.524,7.005,3.524,7.005S332.185,92.757,336.649,84.947Z" transform="translate(-239.502 -42.253)"/><path class="o" d="M271.766,161.251a51.225,51.225,0,0,1-19.227-3.567l-.521-.208.051-.562c.486-5.382.915-11.493,1.339-19.235.232-4.194.419-9.606.643-15.868.232-6.592.494-14.048.851-21.191-4.113-3.948-11.191-11.072-14.7-16.481l-.135-.043-.1-.392c-.284-1.059,8.93-17.356,17.54-27.267l1.088-1.267c4.515-5.242,7.51-8.72,15.058-9.157.138-.081.211-.119.211-.119l2.034-1.069-.994,2.069c-.024.046-2.187,4.591-.875,7.664a4.286,4.286,0,0,0,2.833,2.422,16.062,16.062,0,0,0,4.931.872h0c10.281,0,11.2-13.986,11.2-14.123l.051-.891.87.194c3.689.826,10.775,3,13.062,4.391.167.1.321.205.483.319l.14.095c14.661,4.92,30.221,36.416,30.259,37.669l.016.529-.251.105C333,93.988,318.268,106.4,317.642,106.928l-.74.627-.427-.875s-.745-1.539-2.012-4.04a342.816,342.816,0,0,0,4.523,46.683c.165.98.508,3.022-.762,4.124a3.613,3.613,0,0,1-2.039.718c-6.284.745-12.433,2.071-18.387,3.351C288.9,159.433,280.486,161.251,271.766,161.251Zm-18.144-4.772a49.77,49.77,0,0,0,18.147,3.254c8.555,0,16.889-1.8,25.711-3.7,5.981-1.285,12.168-2.617,18.525-3.376a2.345,2.345,0,0,0,1.221-.359c.556-.483.429-1.712.259-2.733a344.318,344.318,0,0,1-4.61-50.21l-.057-3.249,1.485,2.884c1.45,2.814,2.541,5,3.1,6.141,3.073-2.644,14.909-13.041,18.876-19.692-1.415-3.408-16.079-31.9-29.249-36.205l-.184-.089-.24-.162c-.135-.095-.27-.186-.408-.27-1.772-1.077-7.753-3.033-11.777-4.013-.416,3.3-2.584,14.661-12.627,14.661h0a17.515,17.515,0,0,1-5.4-.948,5.791,5.791,0,0,1-3.756-3.273c-1.1-2.579-.278-5.784.354-7.561-6.354.573-9,3.643-13.243,8.579l-1.094,1.267c-8.758,10.081-16.071,23.851-17.1,26.011,3.459,5.309,10.643,12.49,14.65,16.327l.251.238-.016.346c-.37,7.232-.632,14.815-.867,21.512-.219,6.273-.408,11.69-.645,15.9C254.5,145.251,254.091,151.224,253.622,156.479Z" transform="translate(-239.962 -42.838)"/></g><path class="l" d="M276.4,159.947a5.664,5.664,0,0,1-5.663,5.66H245.1a5.662,5.662,0,0,1-5.657-5.66h0a5.66,5.66,0,0,1,5.657-5.66h25.633a5.663,5.663,0,0,1,5.663,5.66Z" transform="translate(-169.501 204.702)"/><path class="l" d="M293.838,159.947a5.662,5.662,0,0,1-5.658,5.66H262.544a5.66,5.66,0,0,1-5.657-5.66h0a5.66,5.66,0,0,1,5.657-5.66H288.18a5.66,5.66,0,0,1,5.658,5.66Z" transform="translate(-139.838 204.702)"/></g><g transform="translate(208.274 203.602)"><g transform="translate(94.022 0)"><path class="o" d="M134.214,132.837l2.139-17.5q.162-1.458.389-2.852t.5-2.8c.184-.942.378-1.907.583-2.9s.427-2.052.664-3.176h3.791q-.065,1.685-.113,3.176t-.146,2.9q-.1,1.41-.211,2.8c-.076.929-.178,1.877-.308,2.852l-2.139,17.5Zm3.143-40.248a4.254,4.254,0,0,1,.324-1.653,4.34,4.34,0,0,1,.891-1.361,4.2,4.2,0,0,1,1.345-.924,4.343,4.343,0,0,1,3.37,0,4.4,4.4,0,0,1,1.361.924,4.175,4.175,0,0,1,.907,1.361,4.253,4.253,0,0,1,.324,1.653,4.337,4.337,0,0,1-.324,1.685,4.232,4.232,0,0,1-.907,1.361,4.176,4.176,0,0,1-1.361.907,4.543,4.543,0,0,1-3.37,0,4,4,0,0,1-1.345-.907,4.316,4.316,0,0,1-1.215-3.046Z" transform="translate(-134.214 -74.702)"/><path class="o" d="M183.812,103.785a30.651,30.651,0,0,1-1.863,10.859A26.181,26.181,0,0,1,176.8,123.2a23.307,23.307,0,0,1-7.777,5.6,23.637,23.637,0,0,1-9.77,2.009,18.938,18.938,0,0,1-7.794-1.537,17.136,17.136,0,0,1-5.882-4.261,18.846,18.846,0,0,1-3.727-6.468,24.849,24.849,0,0,1-1.3-8.18,32.246,32.246,0,0,1,.843-7.472,28.7,28.7,0,0,1,2.4-6.562,24.733,24.733,0,0,1,3.775-5.428,23.814,23.814,0,0,1,4.942-4.116,22.919,22.919,0,0,1,5.914-2.609,24.357,24.357,0,0,1,6.692-.907,18.968,18.968,0,0,1,7.777,1.539,16.966,16.966,0,0,1,5.9,4.278,19,19,0,0,1,3.727,6.495A25.039,25.039,0,0,1,183.812,103.785Zm-6.835.165a20.735,20.735,0,0,0-.875-6.225,13.931,13.931,0,0,0-2.511-4.764,11.05,11.05,0,0,0-3.986-3.046,12.659,12.659,0,0,0-5.3-1.069,15.551,15.551,0,0,0-6.87,1.51,15.371,15.371,0,0,0-5.347,4.294,20.532,20.532,0,0,0-3.484,6.724,29.048,29.048,0,0,0-1.248,8.8,21.082,21.082,0,0,0,.859,6.222,13.524,13.524,0,0,0,2.5,4.747,11.165,11.165,0,0,0,3.97,3.03,12.5,12.5,0,0,0,5.282,1.069,15.73,15.73,0,0,0,6.919-1.51,15.558,15.558,0,0,0,5.379-4.278,19.955,19.955,0,0,0,3.484-6.705A29.513,29.513,0,0,0,176.977,103.95Z" transform="translate(-123.44 -83.272)"/><path class="o" d="M177.306,83.464a20.9,20.9,0,0,1,6.514.907,12.558,12.558,0,0,1,4.556,2.544,10.146,10.146,0,0,1,2.671,3.921,14.067,14.067,0,0,1,.875,5.071,18.867,18.867,0,0,1-1.183,6.789,14.505,14.505,0,0,1-3.5,5.333,16.316,16.316,0,0,1-5.722,3.5,22.336,22.336,0,0,1-7.81,1.264H167.2L165.089,130h-6.611l5.671-46.534h13.157Zm-2.949,24.045a12.45,12.45,0,0,0,4.7-.826,9.315,9.315,0,0,0,5.5-5.752,13.378,13.378,0,0,0,.7-4.41,7.718,7.718,0,0,0-2.123-5.717Q181,88.681,176.66,88.681h-6.514l-2.3,18.828Z" transform="translate(-92.954 -82.945)"/><path class="o" d="M190.9,83.464a20.9,20.9,0,0,1,6.514.907,12.524,12.524,0,0,1,4.553,2.544,10.182,10.182,0,0,1,2.673,3.921,14.067,14.067,0,0,1,.875,5.071,18.868,18.868,0,0,1-1.183,6.789,14.512,14.512,0,0,1-3.5,5.333,16.3,16.3,0,0,1-5.72,3.5,22.347,22.347,0,0,1-7.81,1.264h-6.514L178.686,130h-6.611l5.671-46.534H190.9Zm-2.949,24.045a12.445,12.445,0,0,0,4.7-.826,9.3,9.3,0,0,0,5.5-5.752,13.376,13.376,0,0,0,.7-4.41,7.727,7.727,0,0,0-2.12-5.717q-2.127-2.123-6.468-2.123h-6.514l-2.3,18.828Z" transform="translate(-69.833 -82.945)"/><path class="o" d="M214.539,91.288a2.72,2.72,0,0,1-.732.762,1.617,1.617,0,0,1-.891.243,1.851,1.851,0,0,1-1.183-.551,16.41,16.41,0,0,0-1.588-1.2,12.4,12.4,0,0,0-2.3-1.2,8.843,8.843,0,0,0-3.322-.551,9.551,9.551,0,0,0-3.562.618,7.706,7.706,0,0,0-2.625,1.666,6.985,6.985,0,0,0-1.623,2.479,8.4,8.4,0,0,0-.551,3.046,4.691,4.691,0,0,0,.778,2.741,6.957,6.957,0,0,0,2.044,1.912,16.291,16.291,0,0,0,2.868,1.407q1.6.616,3.289,1.283t3.292,1.491a12.372,12.372,0,0,1,2.868,2.025,9.287,9.287,0,0,1,2.042,2.9,9.85,9.85,0,0,1,.778,4.129,17.318,17.318,0,0,1-1.15,6.3,15.611,15.611,0,0,1-3.292,5.2,15.414,15.414,0,0,1-5.185,3.532,17.3,17.3,0,0,1-6.835,1.3,17.783,17.783,0,0,1-3.972-.437,16.909,16.909,0,0,1-3.546-1.231,15.418,15.418,0,0,1-3.03-1.912,14.757,14.757,0,0,1-2.447-2.514L187,121.558a3.367,3.367,0,0,1,.745-.616,1.7,1.7,0,0,1,.907-.262,1.547,1.547,0,0,1,.891.34,12.986,12.986,0,0,1,1.034.859q.571.518,1.283,1.1a11.087,11.087,0,0,0,1.65,1.1,9.968,9.968,0,0,0,2.174.856,10.612,10.612,0,0,0,2.819.34,10.488,10.488,0,0,0,3.84-.664,8.294,8.294,0,0,0,2.9-1.861,7.961,7.961,0,0,0,1.831-2.884,10.539,10.539,0,0,0,.632-3.727,5.075,5.075,0,0,0-.762-2.881,6.674,6.674,0,0,0-2.025-1.931,15.366,15.366,0,0,0-2.868-1.377q-1.6-.583-3.27-1.2a35.156,35.156,0,0,1-3.276-1.393,11.089,11.089,0,0,1-2.868-1.993,9.044,9.044,0,0,1-2.025-2.981,11.025,11.025,0,0,1-.762-4.359,14.989,14.989,0,0,1,1.056-5.558,14.173,14.173,0,0,1,3.027-4.715,14.622,14.622,0,0,1,4.812-3.257,16.1,16.1,0,0,1,6.4-1.215,14.953,14.953,0,0,1,6.562,1.41,13.21,13.21,0,0,1,4.783,3.773Z" transform="translate(-48.425 -83.252)"/><path class="o" d="M197.658,126.207a4.229,4.229,0,0,1,.321-1.65,4.31,4.31,0,0,1,.891-1.361,4.227,4.227,0,0,1,1.345-.926,4.161,4.161,0,0,1,1.688-.34,4.065,4.065,0,0,1,1.65.34,4.39,4.39,0,0,1,2.285,2.287,4.067,4.067,0,0,1,.343,1.65,4.14,4.14,0,0,1-.343,1.685,4.352,4.352,0,0,1-.924,1.361,4.091,4.091,0,0,1-1.361.907,4.24,4.24,0,0,1-1.65.324,4.341,4.341,0,0,1-1.688-.324,3.971,3.971,0,0,1-1.345-.907,4.3,4.3,0,0,1-1.212-3.046Zm11.925-42.743-2.268,18.568c-.111.972-.238,1.925-.392,2.854s-.324,1.861-.516,2.8-.405,1.907-.632,2.9-.47,2.055-.729,3.178H200.9c.022-1.123.046-2.185.065-3.178s.057-1.961.1-2.9.1-1.874.178-2.8.176-1.88.305-2.854l2.268-18.568Z" transform="translate(-26.329 -82.945)"/></g><g transform="translate(0 80.142)"><path class="o" d="M107.75,113.244a14.865,14.865,0,0,1,4.607.64,8.853,8.853,0,0,1,3.243,1.8,7.187,7.187,0,0,1,1.909,2.822,10.347,10.347,0,0,1,.624,3.673,9.913,9.913,0,0,1-.672,3.7,7.959,7.959,0,0,1-1.977,2.9,8.932,8.932,0,0,1-3.254,1.885,13.791,13.791,0,0,1-4.483.67h-4.261V141.9H99.4V113.247h8.353Zm0,14.747a8.2,8.2,0,0,0,2.736-.419,5.383,5.383,0,0,0,1.977-1.186,4.941,4.941,0,0,0,1.2-1.836,6.626,6.626,0,0,0,.4-2.363,5.415,5.415,0,0,0-1.564-4.11,6.651,6.651,0,0,0-4.75-1.5h-4.261V128h4.261Z" transform="translate(-99.397 -112.447)"/><path class="o" d="M107.9,124.66a11.122,11.122,0,0,1,3.543-2.414,10.766,10.766,0,0,1,4.194-.8,7.221,7.221,0,0,1,2.957.57,6.09,6.09,0,0,1,2.168,1.585,6.81,6.81,0,0,1,1.334,2.433,10.3,10.3,0,0,1,.451,3.133V142.1h-1.672a1.527,1.527,0,0,1-.843-.189,1.3,1.3,0,0,1-.459-.707l-.4-1.777a16.327,16.327,0,0,1-1.477,1.267,9.343,9.343,0,0,1-1.526.937,7.61,7.61,0,0,1-1.7.589,9.282,9.282,0,0,1-2,.2,6.918,6.918,0,0,1-2.158-.329,4.781,4.781,0,0,1-1.755-1.007,4.7,4.7,0,0,1-1.18-1.7,6.016,6.016,0,0,1-.432-2.374,4.63,4.63,0,0,1,.624-2.3,5.715,5.715,0,0,1,2.033-1.985,12.824,12.824,0,0,1,3.686-1.437,26.6,26.6,0,0,1,5.6-.637V129.17a5.306,5.306,0,0,0-.94-3.432,3.375,3.375,0,0,0-2.763-1.137,5.863,5.863,0,0,0-2.063.319,8.034,8.034,0,0,0-1.439.708q-.6.389-1.056.71a1.591,1.591,0,0,1-.932.319,1.032,1.032,0,0,1-.664-.221,1.838,1.838,0,0,1-.451-.519Zm10.98,8.439a27.417,27.417,0,0,0-3.878.37,10.392,10.392,0,0,0-2.59.77,3.522,3.522,0,0,0-1.439,1.126,2.517,2.517,0,0,0-.443,1.447,3.246,3.246,0,0,0,.24,1.307,2.407,2.407,0,0,0,.654.9,2.584,2.584,0,0,0,.969.508,4.327,4.327,0,0,0,1.21.159,6.57,6.57,0,0,0,1.582-.178,6.153,6.153,0,0,0,1.353-.508,6.7,6.7,0,0,0,1.21-.807,10.714,10.714,0,0,0,1.132-1.1v-4Zm2.187-19.973-4.55,5.147a1.793,1.793,0,0,1-.556.47,1.644,1.644,0,0,1-.71.13h-2.266l2.841-4.828a2.231,2.231,0,0,1,.586-.689,1.689,1.689,0,0,1,.988-.23Z" transform="translate(-86.553 -112.648)"/><path class="o" d="M132.154,117.32v1.456q0,.721-.864.9L129.2,120a7.249,7.249,0,0,1,.421,1.307,6.624,6.624,0,0,1,.154,1.447,6.36,6.36,0,0,1-.559,2.7,6.132,6.132,0,0,1-1.534,2.066,6.807,6.807,0,0,1-2.333,1.318,9.2,9.2,0,0,1-2.965.459,9.815,9.815,0,0,1-2.476-.3,2.915,2.915,0,0,0-.872.789,1.471,1.471,0,0,0-.3.848,1.128,1.128,0,0,0,.567,1.037,4.251,4.251,0,0,0,1.477.489,16.517,16.517,0,0,0,2.09.189q1.183.041,2.4.13a20.765,20.765,0,0,1,2.4.319,7,7,0,0,1,2.09.737,4.068,4.068,0,0,1,1.477,1.4,4.24,4.24,0,0,1,.567,2.306,5.616,5.616,0,0,1-.624,2.555,6.658,6.658,0,0,1-1.815,2.193,9.428,9.428,0,0,1-2.9,1.537,12.045,12.045,0,0,1-3.878.578,14.28,14.28,0,0,1-3.77-.44,8.674,8.674,0,0,1-2.668-1.177,5,5,0,0,1-1.593-1.715,4.205,4.205,0,0,1-.527-2.033,3.714,3.714,0,0,1,.883-2.506,5.823,5.823,0,0,1,2.439-1.607,3.424,3.424,0,0,1-1.345-1.086,3.051,3.051,0,0,1-.5-1.826,2.909,2.909,0,0,1,.154-.907,3.822,3.822,0,0,1,.47-.94,4.707,4.707,0,0,1,.789-.888,5.935,5.935,0,0,1,1.083-.759,6.488,6.488,0,0,1-2.533-8.164A6.094,6.094,0,0,1,117.018,118a6.91,6.91,0,0,1,2.363-1.315,9.438,9.438,0,0,1,3-.459,8.3,8.3,0,0,1,4.359,1.1h5.412Zm-3.8,20.572a1.656,1.656,0,0,0-.383-1.148,2.621,2.621,0,0,0-1.045-.678,6.848,6.848,0,0,0-1.545-.359q-.883-.109-1.853-.17c-.645-.04-1.307-.076-1.985-.111s-1.331-.1-1.958-.189a5.521,5.521,0,0,0-1.642,1.258,2.552,2.552,0,0,0-.643,1.736,2.38,2.38,0,0,0,.316,1.2,2.769,2.769,0,0,0,.978.967,5.442,5.442,0,0,0,1.672.637,10.929,10.929,0,0,0,2.409.23,10.734,10.734,0,0,0,2.436-.248,5.9,5.9,0,0,0,1.777-.7,3.269,3.269,0,0,0,1.094-1.069A2.573,2.573,0,0,0,128.352,137.892Zm-5.971-11.175a4.988,4.988,0,0,0,1.755-.281,3.424,3.424,0,0,0,1.267-.789,3.294,3.294,0,0,0,.767-1.226,4.612,4.612,0,0,0,.259-1.577,3.84,3.84,0,0,0-1.026-2.8,4.057,4.057,0,0,0-3.025-1.048,4.014,4.014,0,0,0-3,1.048,3.84,3.84,0,0,0-1.026,2.8,4.526,4.526,0,0,0,.259,1.566,3.328,3.328,0,0,0,.767,1.218,3.515,3.515,0,0,0,1.267.8A4.843,4.843,0,0,0,122.381,126.718Z" transform="translate(-74.507 -107.385)"/><path class="o" d="M126.975,115.722a2.535,2.535,0,0,1-.213,1.029,2.826,2.826,0,0,1-.564.856,2.571,2.571,0,0,1-.834.578,2.467,2.467,0,0,1-1,.211,2.334,2.334,0,0,1-.98-.211,2.713,2.713,0,0,1-1.574-2.463,2.713,2.713,0,0,1,.2-1.048,2.659,2.659,0,0,1,.556-.859,2.58,2.58,0,0,1,.816-.578,2.375,2.375,0,0,1,.98-.208,2.464,2.464,0,0,1,1,.208,2.657,2.657,0,0,1,.834.578,2.822,2.822,0,0,1,.564.859A2.633,2.633,0,0,1,126.975,115.722Zm-.713,6.268v20.272h-3.743V121.99h3.743Z" transform="translate(-61.286 -112.811)"/><path class="o" d="M128.983,119.362a13.7,13.7,0,0,1,1.326-1.277,8.312,8.312,0,0,1,1.466-.988,7.517,7.517,0,0,1,1.672-.637,7.6,7.6,0,0,1,1.909-.23,6.717,6.717,0,0,1,2.83.559,5.669,5.669,0,0,1,2.044,1.566,6.9,6.9,0,0,1,1.248,2.425,10.96,10.96,0,0,1,.421,3.133V136.82h-3.762V123.912a5.314,5.314,0,0,0-.959-3.381,3.525,3.525,0,0,0-2.935-1.207,5.412,5.412,0,0,0-2.7.707,9.043,9.043,0,0,0-2.333,1.925V136.82H125.47V116.548h2.247a.924.924,0,0,1,.98.778Z" transform="translate(-55.061 -107.371)"/><path class="o" d="M133.838,119.421a11.122,11.122,0,0,1,3.543-2.414,10.766,10.766,0,0,1,4.194-.8,7.221,7.221,0,0,1,2.957.57,6.09,6.09,0,0,1,2.168,1.585,6.811,6.811,0,0,1,1.334,2.433,10.3,10.3,0,0,1,.451,3.133v12.93h-1.672a1.527,1.527,0,0,1-.843-.189,1.3,1.3,0,0,1-.459-.707l-.4-1.777a16.333,16.333,0,0,1-1.477,1.267,9.342,9.342,0,0,1-1.526.937,7.611,7.611,0,0,1-1.7.589,9.282,9.282,0,0,1-2,.2,6.918,6.918,0,0,1-2.158-.329,4.781,4.781,0,0,1-1.755-1.007,4.7,4.7,0,0,1-1.18-1.7,6.016,6.016,0,0,1-.432-2.374,4.63,4.63,0,0,1,.624-2.3,5.715,5.715,0,0,1,2.033-1.985,12.824,12.824,0,0,1,3.686-1.437,26.6,26.6,0,0,1,5.6-.637V123.93a5.306,5.306,0,0,0-.94-3.432,3.375,3.375,0,0,0-2.763-1.137,5.863,5.863,0,0,0-2.063.319,8.036,8.036,0,0,0-1.439.708q-.6.389-1.056.71a1.591,1.591,0,0,1-.932.319,1.032,1.032,0,0,1-.664-.221,1.839,1.839,0,0,1-.451-.518Zm10.977,8.439a27.419,27.419,0,0,0-3.878.37,10.393,10.393,0,0,0-2.59.77,3.522,3.522,0,0,0-1.439,1.126,2.516,2.516,0,0,0-.443,1.447,3.246,3.246,0,0,0,.24,1.307,2.407,2.407,0,0,0,.654.9,2.583,2.583,0,0,0,.969.508,4.327,4.327,0,0,0,1.21.159,6.57,6.57,0,0,0,1.582-.178,6.154,6.154,0,0,0,1.353-.508,6.7,6.7,0,0,0,1.21-.807,10.713,10.713,0,0,0,1.132-1.1Z" transform="translate(-42.448 -107.409)"/><path class="o" d="M166.971,113.244V141.9H164.9a1.6,1.6,0,0,1-.8-.178,2.418,2.418,0,0,1-.643-.578L147.89,120.209c.024.359.049.713.067,1.059s.03.672.03.978V141.9H144.4V113.247h2.112a1.928,1.928,0,0,1,.8.13,1.789,1.789,0,0,1,.6.589l15.6,20.95c-.038-.386-.068-.762-.086-1.126s-.03-.708-.03-1.026V113.247h3.573Z" transform="translate(-22.874 -112.447)"/><path class="o" d="M163.789,116.229a9.956,9.956,0,0,1,3.886.729,8.092,8.092,0,0,1,2.957,2.1,9.434,9.434,0,0,1,1.871,3.292,14.637,14.637,0,0,1,0,8.65,9.29,9.29,0,0,1-1.871,3.292,8.162,8.162,0,0,1-2.957,2.085,10.778,10.778,0,0,1-7.794,0,8.272,8.272,0,0,1-2.965-2.085,9.3,9.3,0,0,1-1.89-3.292,14.466,14.466,0,0,1,0-8.65,9.463,9.463,0,0,1,1.89-3.292,8.2,8.2,0,0,1,2.965-2.1A10.008,10.008,0,0,1,163.789,116.229Zm0,17.839a4.711,4.711,0,0,0,4.126-1.936,11.581,11.581,0,0,0,0-10.9,4.7,4.7,0,0,0-4.126-1.944,4.764,4.764,0,0,0-4.175,1.944,11.52,11.52,0,0,0,0,10.9A4.768,4.768,0,0,0,163.789,134.068Z" transform="translate(-5.927 -107.371)"/><path class="o" d="M183.839,138.445l-.019,3.451H166.737V113.244H183.82V116.7H170.844v9.079h10.44v3.332h-10.44v9.338Z" transform="translate(15.113 -112.447)"/><path class="o" d="M177.983,119.362a13.7,13.7,0,0,1,1.326-1.277,8.333,8.333,0,0,1,1.469-.988,7.5,7.5,0,0,1,1.669-.637,7.6,7.6,0,0,1,1.909-.23,6.734,6.734,0,0,1,2.83.559,5.655,5.655,0,0,1,2.047,1.566,6.944,6.944,0,0,1,1.248,2.425,10.864,10.864,0,0,1,.421,3.133V136.82h-3.764V123.912a5.3,5.3,0,0,0-.959-3.381,3.522,3.522,0,0,0-2.935-1.207,5.412,5.412,0,0,0-2.7.707,9.033,9.033,0,0,0-2.331,1.925V136.82H174.47V116.548h2.247a.924.924,0,0,1,.98.778Z" transform="translate(28.262 -107.371)"/><path class="o" d="M196.794,120.341a2.09,2.09,0,0,1-.338.348.738.738,0,0,1-.47.13,1.1,1.1,0,0,1-.643-.248,9.548,9.548,0,0,0-.843-.54,7.385,7.385,0,0,0-1.229-.537,5.514,5.514,0,0,0-1.777-.248,5.451,5.451,0,0,0-2.436.518,4.755,4.755,0,0,0-1.755,1.477,6.887,6.887,0,0,0-1.067,2.333,12.1,12.1,0,0,0-.365,3.095,11.735,11.735,0,0,0,.386,3.162,6.931,6.931,0,0,0,1.091,2.336,4.677,4.677,0,0,0,1.731,1.437,5.132,5.132,0,0,0,2.263.489,5.487,5.487,0,0,0,2-.311,6.322,6.322,0,0,0,1.3-.67,8.728,8.728,0,0,0,.864-.667,1.054,1.054,0,0,1,.71-.311.809.809,0,0,1,.71.359L198,133.93a7.249,7.249,0,0,1-1.51,1.456,8.351,8.351,0,0,1-1.772.978,9.628,9.628,0,0,1-1.969.559,12.2,12.2,0,0,1-2.082.178,8.321,8.321,0,0,1-3.408-.7,7.76,7.76,0,0,1-2.746-2.033,9.829,9.829,0,0,1-1.834-3.281,13.49,13.49,0,0,1-.672-4.421,13.8,13.8,0,0,1,.6-4.17,9.406,9.406,0,0,1,1.785-3.3,8.3,8.3,0,0,1,2.908-2.177,9.445,9.445,0,0,1,3.953-.789,8.65,8.65,0,0,1,6.527,2.671Z" transform="translate(41.087 -107.373)"/><path class="o" d="M198.113,116.229a9.943,9.943,0,0,1,3.883.729,8.115,8.115,0,0,1,2.957,2.1,9.476,9.476,0,0,1,1.871,3.292,14.7,14.7,0,0,1,0,8.65,9.374,9.374,0,0,1-1.871,3.292A8.139,8.139,0,0,1,202,136.372a10.77,10.77,0,0,1-7.791,0,8.272,8.272,0,0,1-2.965-2.085A9.329,9.329,0,0,1,189.347,131a14.522,14.522,0,0,1,0-8.65,9.426,9.426,0,0,1,1.893-3.292,8.2,8.2,0,0,1,2.965-2.1A10.008,10.008,0,0,1,198.113,116.229Zm0,17.839a4.7,4.7,0,0,0,4.124-1.936,11.581,11.581,0,0,0,0-10.9,4.7,4.7,0,0,0-4.124-1.944,4.769,4.769,0,0,0-4.178,1.944,11.521,11.521,0,0,0,0,10.9A4.773,4.773,0,0,0,198.113,134.068Z" transform="translate(52.44 -107.371)"/><path class="o" d="M200.7,119.362a13.689,13.689,0,0,1,1.326-1.277,8.332,8.332,0,0,1,1.469-.988,7.493,7.493,0,0,1,1.669-.637,7.6,7.6,0,0,1,1.909-.23,6.734,6.734,0,0,1,2.83.559,5.655,5.655,0,0,1,2.047,1.566,6.944,6.944,0,0,1,1.248,2.425,10.866,10.866,0,0,1,.421,3.133V136.82h-3.764V123.912a5.3,5.3,0,0,0-.959-3.381,3.522,3.522,0,0,0-2.935-1.207,5.412,5.412,0,0,0-2.7.707,9.033,9.033,0,0,0-2.331,1.925V136.82h-3.746V116.548h2.247a.924.924,0,0,1,.98.778Z" transform="translate(66.892 -107.371)"/><path class="o" d="M212.309,141.024a4.723,4.723,0,0,1-3.64-1.377,5.587,5.587,0,0,1-1.277-3.932v-12.13h-2.263a.765.765,0,0,1-.548-.211.823.823,0,0,1-.221-.629V121.17l3.17-.459.843-6.046a.954.954,0,0,1,.294-.529.837.837,0,0,1,.567-.189h1.9v6.805h5.528v2.833h-5.528v11.871a2.5,2.5,0,0,0,.564,1.788,1.929,1.929,0,0,0,1.45.589,2.51,2.51,0,0,0,.891-.14,3.488,3.488,0,0,0,.643-.308c.178-.113.332-.216.462-.311a.625.625,0,0,1,.346-.14.449.449,0,0,1,.3.089,1.037,1.037,0,0,1,.219.289l1.113,1.874a6.378,6.378,0,0,1-2.187,1.356A7.223,7.223,0,0,1,212.309,141.024Z" transform="translate(79.088 -111.254)"/><path class="o" d="M213.72,120.477a9.205,9.205,0,0,1,2.268-3.133,4.718,4.718,0,0,1,3.186-1.137,4.638,4.638,0,0,1,1.2.151,3.031,3.031,0,0,1,.991.448l-.254,2.933a.612.612,0,0,1-.632.537,4.276,4.276,0,0,1-.807-.111,5.715,5.715,0,0,0-1.15-.111,4.329,4.329,0,0,0-1.593.27,3.693,3.693,0,0,0-1.24.8,5.446,5.446,0,0,0-.967,1.3,13.232,13.232,0,0,0-.789,1.744v12.69h-3.743V116.581h2.15a1.159,1.159,0,0,1,.837.23,1.556,1.556,0,0,1,.316.807Z" transform="translate(89 -107.407)"/><path class="o" d="M215.7,119.421a11.122,11.122,0,0,1,3.543-2.414,10.757,10.757,0,0,1,4.194-.8,7.208,7.208,0,0,1,2.954.57,6.077,6.077,0,0,1,2.171,1.585A6.81,6.81,0,0,1,229.9,120.8a10.3,10.3,0,0,1,.451,3.133v12.93h-1.672a1.533,1.533,0,0,1-.843-.189,1.329,1.329,0,0,1-.459-.707l-.4-1.777a15.978,15.978,0,0,1-1.48,1.267,9.321,9.321,0,0,1-1.523.937,7.565,7.565,0,0,1-1.7.589,9.308,9.308,0,0,1-2,.2,6.93,6.93,0,0,1-2.158-.329,4.678,4.678,0,0,1-2.938-2.7,6.064,6.064,0,0,1-.432-2.374,4.658,4.658,0,0,1,.624-2.3,5.693,5.693,0,0,1,2.033-1.985,12.809,12.809,0,0,1,3.686-1.437,26.6,26.6,0,0,1,5.6-.637V123.93a5.29,5.29,0,0,0-.942-3.432,3.371,3.371,0,0,0-2.763-1.137,5.879,5.879,0,0,0-2.066.319,8.22,8.22,0,0,0-1.439.708c-.4.259-.753.5-1.056.71a1.589,1.589,0,0,1-.929.319,1.022,1.022,0,0,1-.664-.221,1.876,1.876,0,0,1-.451-.518Zm10.98,8.439a27.379,27.379,0,0,0-3.878.37,10.382,10.382,0,0,0-2.592.77,3.5,3.5,0,0,0-1.439,1.126,2.534,2.534,0,0,0-.44,1.447,3.248,3.248,0,0,0,.238,1.307,2.468,2.468,0,0,0,.654.9,2.584,2.584,0,0,0,.969.508,4.294,4.294,0,0,0,1.207.159,6.586,6.586,0,0,0,1.582-.178,6.125,6.125,0,0,0,1.356-.508,6.771,6.771,0,0,0,1.207-.807,11,11,0,0,0,1.134-1.1v-4Z" transform="translate(96.75 -107.409)"/><path class="o" d="M239.382,112.949V142.4h-2.263a.924.924,0,0,1-.98-.778l-.324-2.336a10.456,10.456,0,0,1-2.83,2.466,7.116,7.116,0,0,1-3.659.929A6.663,6.663,0,0,1,226.3,142a6.372,6.372,0,0,1-2.309-1.985,9.6,9.6,0,0,1-1.48-3.243,17.26,17.26,0,0,1-.519-4.45,14.621,14.621,0,0,1,.575-4.188,10.282,10.282,0,0,1,1.672-3.354,7.991,7.991,0,0,1,2.646-2.225,7.533,7.533,0,0,1,3.513-.807,6.856,6.856,0,0,1,3.006.6,7.13,7.13,0,0,1,2.214,1.7V112.952h3.759Zm-3.762,14.086a5.383,5.383,0,0,0-1.985-1.755,5.569,5.569,0,0,0-2.393-.5,4.653,4.653,0,0,0-3.983,1.925,9.426,9.426,0,0,0-1.407,5.617,14.866,14.866,0,0,0,.316,3.3,6.374,6.374,0,0,0,.921,2.233,3.7,3.7,0,0,0,1.488,1.277,4.691,4.691,0,0,0,2,.408,5.128,5.128,0,0,0,2.822-.759,8.682,8.682,0,0,0,2.225-2.136Z" transform="translate(109.079 -112.949)"/><path class="o" d="M230.791,119.421a11.123,11.123,0,0,1,3.543-2.414,10.757,10.757,0,0,1,4.194-.8,7.207,7.207,0,0,1,2.954.57,6.076,6.076,0,0,1,2.171,1.585,6.811,6.811,0,0,1,1.334,2.433,10.3,10.3,0,0,1,.451,3.133v12.93h-1.672a1.533,1.533,0,0,1-.843-.189,1.329,1.329,0,0,1-.459-.707l-.4-1.777a15.99,15.99,0,0,1-1.48,1.267,9.32,9.32,0,0,1-1.523.937,7.564,7.564,0,0,1-1.7.589,9.307,9.307,0,0,1-2,.2,6.93,6.93,0,0,1-2.158-.329,4.679,4.679,0,0,1-2.938-2.7,6.065,6.065,0,0,1-.432-2.374,4.658,4.658,0,0,1,.624-2.3,5.693,5.693,0,0,1,2.033-1.985,12.809,12.809,0,0,1,3.686-1.437,26.6,26.6,0,0,1,5.6-.637V123.93a5.29,5.29,0,0,0-.942-3.432,3.371,3.371,0,0,0-2.763-1.137,5.878,5.878,0,0,0-2.066.319,8.218,8.218,0,0,0-1.439.708c-.4.259-.753.5-1.056.71a1.589,1.589,0,0,1-.929.319,1.022,1.022,0,0,1-.664-.221,1.878,1.878,0,0,1-.451-.518Zm10.983,8.439a27.381,27.381,0,0,0-3.878.37,10.381,10.381,0,0,0-2.592.77,3.5,3.5,0,0,0-1.439,1.126,2.534,2.534,0,0,0-.44,1.447,3.248,3.248,0,0,0,.238,1.307,2.467,2.467,0,0,0,.654.9,2.584,2.584,0,0,0,.969.508,4.294,4.294,0,0,0,1.207.159,6.586,6.586,0,0,0,1.582-.178,6.126,6.126,0,0,0,1.356-.508,6.775,6.775,0,0,0,1.207-.807,11,11,0,0,0,1.134-1.1v-4Z" transform="translate(122.409 -107.409)"/></g></g></svg>