<?xml version="1.0" encoding="utf-8"?>
<!-- Generator: Adobe Illustrator 24.0.2, SVG Export Plug-In . SVG Version: 6.00 Build 0)  -->
<svg version="1.1" id="Capa_1" xmlns="http://www.w3.org/2000/svg" xmlns:xlink="http://www.w3.org/1999/xlink" x="0px" y="0px"
	 viewBox="0 0 1133.9 340.5" style="enable-background:new 0 0 1133.9 340.5;" xml:space="preserve">
<style type="text/css">
	.st0{fill:#0A3356;}
	.st1{fill:#749C40;}
	.st2{enable-background:new    ;}
	.st3{fill:#FFFFFF;}
	.st4{fill:#7F7F7F;}
</style>
<title>Recurso 2</title>
<g id="Capa_2_1_">
	<g id="Capa_1-2">
		<path class="st0" d="M166.4,0H0v245.2L236.3,9C217.1,3.2,194.1,0,166.4,0z"/>
		<path class="st0" d="M290.9,130.2h0.1l19.8-19.8l-19.7-19.8L310.9,71l-48.4-48.6L0,284.9v28.5L257,56.6l19.7,19.8l-264,264.2h28.6
			l229.9-229.8L290.9,130.2z"/>
		<path class="st1" d="M253,224.7L253,224.7c31-15,53.3-38.1,62.5-69.7l-24.6-24.6L130.3,291.1l34.5,49.4h167.5L253,224.7z"/>
		<g class="st2">
			<path class="st0" d="M421.4,51.8h61.9c22.4,0,36.7,5.6,45.6,14.5c7.6,7.6,11.6,17,11.6,30v0.4c0,18.5-9.6,31.3-25,38.7l29.5,43.1
				h-48.3l-23.9-36.2h-9v36.2h-42.3V51.8z M482,112c10.1,0,16.3-4.5,16.3-12.3v-0.4c0-8.1-6.3-12.1-16.1-12.1h-18.5V112H482z"/>
			<path class="st0" d="M554.4,51.8h108v34.7H596v12.8h61.9v30.6H596v13.7h67.3v34.7H554.4V51.8z"/>
			<path class="st0" d="M678.3,51.8h48.5c50.3,0,75.4,24.8,75.4,62.2v0.4c0,37.4-25.7,64-76.9,64h-47V51.8z M720.6,88.7v52.8h7.1
				c19.4,0,31.8-8,31.8-26.2v-0.4c0-18.3-12.5-26.2-31.8-26.2H720.6z"/>
			<path class="st0" d="M867,51.8h48.5c50.3,0,75.4,24.8,75.4,62.2v0.4c0,37.4-25.7,64-76.9,64h-47V51.8z M909.3,88.7v52.8h7.1
				c19.4,0,31.8-8,31.8-26.2v-0.4c0-18.3-12.5-26.2-31.8-26.2H909.3z"/>
			<path class="st0" d="M1006.1,51.8h108v34.7h-66.4v12.8h61.9v30.6h-61.9v13.7h67.3v34.7h-108.9V51.8z"/>
		</g>
		<polygon class="st1" points="493.4,173.4 496.7,178.4 545,178.4 522,144.9 		"/>
		<polygon class="st1" points="596.9,143.7 596.9,129.9 658.8,129.9 658.8,99.4 596.9,99.4 596.9,86.5 663.3,86.5 663.3,51.8 
			615.1,51.8 555.3,111.6 555.3,178.4 664.2,178.4 664.2,143.7 		"/>
		<path class="st1" d="M719.9,146.1l4.6-4.6h-2V88.7h7.1c15.8,0,27,5.3,30.6,17.2l31-31c-12.2-14.6-33-23.1-62.5-23.1h-48.5v126.6
			h7.5c0.2-0.3,0.4-0.5,0.7-0.8l11.8-11.8C706,158.7,712.7,152.1,719.9,146.1z"/>
		
			<rect x="406.4" y="121.4" transform="matrix(0.707 -0.7072 0.7072 0.707 65.5506 413.6498)" class="st3" width="251.2" height="12.6"/>
		
			<rect x="629.7" y="117.6" transform="matrix(0.707 -0.7072 0.7072 0.707 126.8311 557.4097)" class="st3" width="212.8" height="16"/>
		<g class="st2">
			<path class="st4" d="M415.5,213.2h63.9v20.5h-39.3v7.6h36.6v18.1h-36.6v8.1h39.8V288h-64.4V213.2z"/>
			<path class="st4" d="M486,250.8v-0.2c0-22.4,17.6-39,41.3-39c12.8,0,23.2,4.3,31.3,11.3l-14,16.9c-4.9-4.2-10.4-6.5-16.6-6.5
				c-9.7,0-16.8,7.5-16.8,17.6v0.2c0,10.6,7.4,17.9,17.9,17.9c4.3,0,6.6-0.6,8.6-1.7v-7.5h-12.8v-16h36.3v34.7
				c-8.1,6.6-19.5,11.2-33.1,11.2C504.8,289.7,486,274,486,250.8z"/>
			<path class="st4" d="M570.5,213.2h36.6c13.3,0,21.7,3.3,27,8.6c4.5,4.5,6.8,10.1,6.8,17.8v0.2c0,10.9-5.7,18.5-14.8,22.9
				l17.4,25.5H615l-14.1-21.4h-5.3V288h-25V213.2z M606.4,248.8c6,0,9.6-2.7,9.6-7.3v-0.2c0-4.8-3.7-7.2-9.5-7.2h-10.9v14.7H606.4z"
				/>
			<path class="st4" d="M649.1,213.2H713v20.5h-39.3v7.6h36.6v18.1h-36.6v8.1h39.8V288h-64.4V213.2z"/>
		</g>
		<g class="st2">
			<path class="st4" d="M724.6,276.8l13.4-15.9c8.1,6.2,17.4,8.8,26.2,8.8c4.5,0,6.4-1.2,6.4-3.2v-0.2c0-2.1-2.4-3.3-10.4-4.9
				c-16.8-3.4-31.6-8.2-31.6-24.1V237c0-14.2,11.1-25.2,31.8-25.2c14.4,0,25.1,3.4,33.8,10.3L782,239c-7.1-5.1-15.5-7.4-22.5-7.4
				c-3.7,0-5.5,1.3-5.5,3.1v0.2c0,2,2,3.3,9.9,4.8c19.1,3.5,32,9.1,32,24.2v0.2c0,15.7-12.9,25.4-33.1,25.4
				C747.8,289.4,734.1,285.2,724.6,276.8z"/>
		</g>
		<g class="st2">
			<path class="st4" d="M826.4,212.6h24.8l31.6,75.4h-27.2l-4-10.1h-26.2l-3.9,10.1h-26.7L826.4,212.6z M845.4,260.2l-6.8-18.2
				l-6.8,18.2H845.4z"/>
			<path class="st4" d="M888,213.2h28.7c29.7,0,44.6,14.7,44.6,36.8v0.2c0,22.1-15.2,37.9-45.5,37.9H888V213.2z M913,235v31.2h4.2
				c11.4,0,18.8-4.7,18.8-15.5v-0.2c0-10.8-7.4-15.5-18.8-15.5H913z"/>
		</g>
		<g class="st2">
			<path class="st4" d="M972.1,250.8v-0.2c0-21.7,17.9-39,41-39s40.8,17.1,40.8,38.8v0.2c0,21.7-17.9,39-41,39
				C989.7,289.7,972.1,272.5,972.1,250.8z M1028.5,250.8v-0.2c0-8.9-6.1-16.9-15.7-16.9c-9.5,0-15.5,7.9-15.5,16.7v0.2
				c0,8.9,6.1,16.9,15.7,16.9C1022.6,267.5,1028.5,259.6,1028.5,250.8z"/>
		</g>
		<g class="st2">
			<path class="st4" d="M1060.6,276.8l13.4-15.9c8.1,6.2,17.4,8.8,26.2,8.8c4.5,0,6.4-1.2,6.4-3.2v-0.2c0-2.1-2.4-3.3-10.4-4.9
				c-16.8-3.4-31.6-8.2-31.6-24.1V237c0-14.2,11.1-25.2,31.8-25.2c14.4,0,25.1,3.4,33.8,10.3l-12.2,16.9c-7.1-5.1-15.5-7.4-22.5-7.4
				c-3.7,0-5.5,1.3-5.5,3.1v0.2c0,2,2,3.3,9.9,4.8c19.1,3.5,32,9.1,32,24.2v0.2c0,15.7-12.9,25.4-33.1,25.4
				C1083.8,289.4,1070.2,285.2,1060.6,276.8z"/>
		</g>
	</g>
</g>
</svg>
