<svg xmlns="http://www.w3.org/2000/svg" width="12" height="12" viewBox="0 0 12 12"><defs><style>.a{fill:#fff;}</style></defs><path class="a" d="M14,8a6,6,0,1,0,6,6A6,6,0,0,0,14,8Zm5.226,6A5.226,5.226,0,1,1,14,8.774,5.225,5.225,0,0,1,19.226,14Zm-2.7,2.452a3.529,3.529,0,0,1-2.422.943,3.283,3.283,0,0,1-3.3-3.408,3.239,3.239,0,0,1,3.277-3.329,3.436,3.436,0,0,1,2.275.783.289.289,0,0,1,.042.387l-.212.292a.29.29,0,0,1-.416.056A2.719,2.719,0,0,0,14.1,11.6a2.262,2.262,0,0,0-2.278,2.374,2.335,2.335,0,0,0,2.3,2.47,2.716,2.716,0,0,0,1.787-.7.29.29,0,0,1,.422.03l.228.279A.289.289,0,0,1,16.528,16.452Z" transform="translate(-8 -8)"/></svg>