<?xml version="1.0" encoding="utf-8"?>
<!-- Generator: Adobe Illustrator 16.0.0, SVG Export Plug-In . SVG Version: 6.00 Build 0)  -->
<!DOCTYPE svg PUBLIC "-//W3C//DTD SVG 1.1//EN" "http://www.w3.org/Graphics/SVG/1.1/DTD/svg11.dtd">
<svg version="1.1" id="Layer_1" xmlns="http://www.w3.org/2000/svg" xmlns:xlink="http://www.w3.org/1999/xlink" x="0px" y="0px"
	 width="606px" height="106.5px" viewBox="0 0 606 106.5" enable-background="new 0 0 606 106.5" xml:space="preserve">
<polygon fill="#EB5B26" points="520.074,27.624 479.836,27.624 479.836,40.804 508.492,40.804 "/>
<path fill="#FFFFFF" d="M64.733,86.36H47.244v-2.976c-2.982,2.137-8.221,3.812-13.217,3.812c-9.431,0-24.178-3.438-24.178-19.348
	c0-17.392,22.244-19.44,34.333-19.44h4.513c0,0-2.376-5.764-9.431-5.764c-5.158,0-9.268,1.117-14.505,4.278L14.361,34.924
	c7.576-5.675,15.555-8.186,25.226-8.186c16.523,0,25.146,8.929,25.146,24.365V86.36z M47.001,62.643c-2.095,0-3.626,0-6.366,0.185
	c-2.499,0.093-5.239,0.37-7.576,0.839c-5.078,1.113-5.722,2.695-5.722,3.904s1.773,3.627,7.817,3.627
	c3.385,0,12.009,0.374,12.009-4.185v-2.51L47.001,62.643z"/>
<path fill="#FFFFFF" d="M131.155,86.268h-17.57v-3.35h-0.161c-3.465,2.418-9.107,4.185-13.298,4.185
	c-18.053,0-26.112-12.278-26.112-30.044c0-18.046,7.979-30.321,26.112-30.321c4.11,0,9.913,1.394,13.298,3.812h0.161V8.041h17.57
	V86.268z M102.948,43.761c-8.141,0-11.364,4.366-11.364,13.299c0,8.836,3.143,13.022,11.364,13.022
	c8.14,0,11.282-4.278,11.282-13.022C114.23,48.038,111.087,43.761,102.948,43.761z"/>
<path fill="#FFFFFF" d="M198.385,63.293h-39.573c0,0,2.307,3.823,4.249,5.213c2.451,1.751,4.956,2.784,8.404,2.784
	c5.4,0,8.463-1.302,11.767-4.463l10.155,11.628c-6.045,5.953-12.734,8.647-22.325,8.647c-19.905,0-30.221-13.207-30.221-29.859
	c0-17.392,10.798-30.602,29.255-30.602c19.182,0,28.853,13.672,28.853,30.602C198.949,59.016,198.867,60.502,198.385,63.293z
	 M181.541,49.151c0,0-2.495-3.096-3.732-4.309c-1.845-1.802-4.663-2.853-7.552-2.853c-2.453,0-4.403,0.335-6.791,1.825
	c-1.738,1.09-4.733,5.336-4.733,5.336H181.541z"/>
<path fill="#FFFFFF" d="M226.201,86.176h-17.569V8.041h17.569V86.176z"/>
<path fill="#FFFFFF" d="M290.763,86.36h-17.489v-2.976c-2.982,2.137-8.221,3.812-13.217,3.812c-9.431,0-24.178-3.438-24.178-19.348
	c0-17.392,22.244-19.44,34.333-19.44h4.513c0,0-1.552-3.107-3.079-4.277c-1.244-0.955-3.4-1.486-6.352-1.486
	c-5.157,0-9.268,1.117-14.505,4.278l-10.398-11.998c7.576-5.675,15.555-8.186,25.226-8.186c16.523,0,25.146,8.929,25.146,24.365
	V86.36z M273.031,62.643c-2.095,0-3.626,0-6.366,0.185c-2.499,0.093-5.239,0.37-7.576,0.839c-5.078,1.113-5.722,2.695-5.722,3.904
	s1.773,3.627,7.817,3.627c3.385,0,12.009,0.374,12.009-4.185v-2.51L273.031,62.643z"/>
<path fill="#FFFFFF" d="M357.184,86.176h-17.568V51.942c0-5.768-2.338-8.463-9.106-8.463c-6.771,0-10.477,3.35-10.477,8.744v33.952
	h-17.57V27.385h17.57v3.723h0.16c4.109-2.884,9.591-4.37,14.506-4.37c15.636,0,22.485,9.483,22.485,23.529V86.176z"/>
<path fill="#FFFFFF" d="M408.293,77.709c-4.029,4.836-9.912,9.395-18.454,9.395c-11.366,0-18.618-6.977-18.618-21.673V44.407v-1.859
	h-6.367V27.666h6.367v-1.952v-5.024l17.568-10.512v15.629v1.767l14.025,0.092v14.882h-14.025v1.859V65.43
	c0,2.976,1.369,4.932,3.71,4.932c2.657,0,4.352-1.213,6.284-3.719L408.293,77.709z"/>
<path fill="#FFFFFF" d="M467.457,86.36H449.97v-2.976c-2.98,2.137-8.221,3.812-13.219,3.812c-9.43,0-24.176-3.438-24.176-19.348
	c0-17.392,22.243-19.44,34.333-19.44h4.513c0,0-1.467-3.838-4.097-4.836c-1.313-0.5-3.058-0.928-5.333-0.928
	c-5.159,0-9.268,1.117-14.508,4.278l-10.396-11.998c7.577-5.675,15.555-8.186,25.227-8.186c16.522,0,25.143,8.929,25.143,24.365
	V86.36z M449.727,62.643c-2.095,0-3.627,0-6.364,0.185c-2.499,0.093-5.24,0.37-7.577,0.839c-5.079,1.113-5.722,2.695-5.722,3.904
	s1.774,3.627,7.815,3.627c3.385,0,12.01,0.374,12.01-4.185v-2.51L449.727,62.643z"/>
<path fill="#FFFFFF" d="M565.24,87.104c-19.259,0-29.012-13.299-29.012-30.229c0-16.93,9.753-30.233,29.012-30.233
	c19.265,0,29.098,13.21,29.098,30.233C594.338,73.708,584.343,87.104,565.24,87.104z M565.24,43.198
	c-8.059,0-11.52,5.209-11.52,13.677c0,8.371,3.623,13.672,11.604,13.672c7.978,0,11.524-5.302,11.524-13.672
	C576.85,48.504,573.303,43.198,565.24,43.198z"/>
<polygon fill="#EB5B26" points="494.549,86.36 534.723,86.36 534.881,73.192 506.381,73.181 "/>
<polygon fill="#EB5B26" points="556.793,11.36 538.312,11.36 459.638,99.278 479.02,99.278 "/>
</svg>
