<?xml version="1.0" encoding="utf-8"?>
<!-- Generator: Adobe Illustrator 16.0.0, SVG Export Plug-In . SVG Version: 6.00 Build 0)  -->
<!DOCTYPE svg PUBLIC "-//W3C//DTD SVG 1.1//EN" "http://www.w3.org/Graphics/SVG/1.1/DTD/svg11.dtd">
<svg version="1.1" id="Layer_1" focusable="false" xmlns="http://www.w3.org/2000/svg" xmlns:xlink="http://www.w3.org/1999/xlink"
	 x="0px" y="0px" width="611px" height="600px" viewBox="0 0 611 600" enable-background="new 0 0 611 600" xml:space="preserve">
<g>
	<path fill="#FFFFFF" d="M539.5,586.25H68.377c-27.089,0-49.127-22.259-49.127-49.618V66.368c0-27.359,22.039-49.618,49.127-49.618
		H539.5c27.156,0,49.25,22.259,49.25,49.618v470.264C588.75,563.991,566.656,586.25,539.5,586.25z M68.377,36.75
		c-16.061,0-29.127,13.287-29.127,29.618v470.264c0,16.331,13.066,29.618,29.127,29.618H539.5c16.129,0,29.25-13.287,29.25-29.618
		V66.368c0-16.332-13.121-29.618-29.25-29.618H68.377z"/>
	<g>
		<polygon fill="#FFFFFF" points="195.326,497.75 113.883,497.75 113.883,235.511 195.449,235.511 195.449,497.75 		"/>
		<path fill="#FFFFFF" d="M154.604,199.695c-26.126,0-47.223-21.22-47.223-47.223s21.098-47.223,47.223-47.223
			c26.004,0,47.224,21.22,47.224,47.223C201.827,178.599,180.73,199.695,154.604,199.695z"/>
		<path fill="#FFFFFF" d="M500.618,497.75h-81.444V370.188c0-30.419-0.613-69.546-42.315-69.546
			c-42.438,0-48.939,33.117-48.939,67.339v129.77h-81.443V235.511h78.133v35.816h1.104c10.917-20.606,37.533-42.316,77.151-42.316
			c82.425,0,97.757,54.336,97.757,124.987V497.75H500.618z"/>
	</g>
</g>
</svg>
