<?xml version="1.0" encoding="utf-8"?>
<!-- Generator: Adobe Illustrator 16.0.0, SVG Export Plug-In . SVG Version: 6.00 Build 0)  -->
<!DOCTYPE svg PUBLIC "-//W3C//DTD SVG 1.1//EN" "http://www.w3.org/Graphics/SVG/1.1/DTD/svg11.dtd">
<svg version="1.1" id="Layer_1" xmlns="http://www.w3.org/2000/svg" xmlns:xlink="http://www.w3.org/1999/xlink" x="0px" y="0px"
	 width="611px" height="610px" viewBox="0 0 611 610" enable-background="new 0 0 611 610" xml:space="preserve">
<path fill="#FFFFFF" d="M402.337,332.188l11.321-71.481h-70.777v-46.389c0-19.554,9.891-38.617,41.581-38.617h32.179v-60.858
	c0,0-29.197-4.831-57.109-4.831c-58.289,0-96.383,34.237-96.383,96.216v54.478H198.36v71.48h64.787v172.804h79.733V332.188H402.337z
	"/>
<path fill="#FFFFFF" d="M543,592.25H71.877c-27.089,0-49.127-22.259-49.127-49.618V72.368c0-27.359,22.039-49.618,49.127-49.618H543
	c27.156,0,49.25,22.259,49.25,49.618v470.264C592.25,569.991,570.156,592.25,543,592.25z M71.877,42.75
	c-16.061,0-29.127,13.287-29.127,29.618v470.264c0,16.331,13.066,29.618,29.127,29.618H543c16.129,0,29.25-13.287,29.25-29.618
	V72.368c0-16.332-13.121-29.618-29.25-29.618H71.877z"/>
</svg>
